<mxfile host="app.diagrams.net" agent="Mozilla/5.0 (X11; Linux x86_64) AppleWebKit/537.36 (KHTML, like Gecko) Chrome/127.0.0.0 Safari/537.36" version="24.7.16">
  <diagram name="PÃ¡gina-1" id="f4UB6Nkb-I1RzzLTKRSJ">
    <mxGraphModel grid="1" page="1" gridSize="10" guides="1" tooltips="1" connect="1" arrows="1" fold="1" pageScale="1" pageWidth="827" pageHeight="1169" math="0" shadow="0">
      <root>
        <mxCell id="0" />
        <mxCell id="1" parent="0" />
        <mxCell id="ZiyMYJmn_KRcL2aeEdIx-2" value="" style="rounded=0;whiteSpace=wrap;html=1;fillColor=#f5f5f5;sketch=1;curveFitting=1;jiggle=2;fontColor=#333333;strokeColor=#666666;" vertex="1" parent="1">
          <mxGeometry x="675" y="-440" width="580" height="360" as="geometry" />
        </mxCell>
        <mxCell id="ZiyMYJmn_KRcL2aeEdIx-3" value="" style="rounded=0;whiteSpace=wrap;html=1;fillColor=#7EA6E0;sketch=1;curveFitting=1;jiggle=2;strokeColor=#6c8ebf;" vertex="1" parent="1">
          <mxGeometry x="675" y="-440" width="580" height="30" as="geometry" />
        </mxCell>
        <mxCell id="ZiyMYJmn_KRcL2aeEdIx-6" value="Home" style="html=1;shadow=0;dashed=0;shape=mxgraph.bootstrap.rrect;rSize=5;strokeColor=none;strokeWidth=1;fillColor=none;fontColor=#000000;whiteSpace=wrap;align=center;verticalAlign=middle;spacingLeft=0;fontStyle=1;fontSize=16;spacing=5;" vertex="1" parent="1">
          <mxGeometry x="675" y="-440" width="100" height="30" as="geometry" />
        </mxCell>
        <mxCell id="ZiyMYJmn_KRcL2aeEdIx-12" value="" style="rounded=0;whiteSpace=wrap;html=1;fillColor=#dae8fc;sketch=1;curveFitting=1;jiggle=2;strokeColor=#6c8ebf;" vertex="1" parent="1">
          <mxGeometry x="675" y="-410" width="100" height="330" as="geometry" />
        </mxCell>
        <mxCell id="ZiyMYJmn_KRcL2aeEdIx-24" value="" style="group;fontStyle=0" connectable="0" vertex="1" parent="1">
          <mxGeometry x="670" y="-410" width="104" height="30" as="geometry" />
        </mxCell>
        <mxCell id="ZiyMYJmn_KRcL2aeEdIx-21" value="" style="rounded=0;whiteSpace=wrap;html=1;sketch=1;curveFitting=1;jiggle=2;container=0;" vertex="1" parent="ZiyMYJmn_KRcL2aeEdIx-24">
          <mxGeometry x="4" width="100" height="30" as="geometry" />
        </mxCell>
        <mxCell id="ZiyMYJmn_KRcL2aeEdIx-23" value="Equipamento" style="text;html=1;align=center;verticalAlign=middle;whiteSpace=wrap;rounded=0;container=0;" vertex="1" parent="ZiyMYJmn_KRcL2aeEdIx-24">
          <mxGeometry width="103" height="30" as="geometry" />
        </mxCell>
        <mxCell id="ZiyMYJmn_KRcL2aeEdIx-25" value="" style="group;fontStyle=0" connectable="0" vertex="1" parent="1">
          <mxGeometry x="670" y="-380" width="104" height="30" as="geometry" />
        </mxCell>
        <mxCell id="ZiyMYJmn_KRcL2aeEdIx-26" value="" style="rounded=0;whiteSpace=wrap;html=1;sketch=1;curveFitting=1;jiggle=2;container=0;" vertex="1" parent="ZiyMYJmn_KRcL2aeEdIx-25">
          <mxGeometry x="4" width="100" height="30" as="geometry" />
        </mxCell>
        <mxCell id="ZiyMYJmn_KRcL2aeEdIx-27" value="Controle EPI" style="text;html=1;align=center;verticalAlign=middle;whiteSpace=wrap;rounded=0;container=0;" vertex="1" parent="ZiyMYJmn_KRcL2aeEdIx-25">
          <mxGeometry width="103" height="30" as="geometry" />
        </mxCell>
        <mxCell id="ZiyMYJmn_KRcL2aeEdIx-28" value="" style="group;fontStyle=0" connectable="0" vertex="1" parent="1">
          <mxGeometry x="675" y="-350" width="100" height="30" as="geometry" />
        </mxCell>
        <mxCell id="ZiyMYJmn_KRcL2aeEdIx-29" value="" style="rounded=0;whiteSpace=wrap;html=1;sketch=1;curveFitting=1;jiggle=2;container=0;" vertex="1" parent="ZiyMYJmn_KRcL2aeEdIx-28">
          <mxGeometry width="100" height="30" as="geometry" />
        </mxCell>
        <mxCell id="ZiyMYJmn_KRcL2aeEdIx-30" value="Colaborador" style="text;html=1;align=center;verticalAlign=middle;whiteSpace=wrap;rounded=0;container=0;" vertex="1" parent="ZiyMYJmn_KRcL2aeEdIx-28">
          <mxGeometry width="99.04" height="30" as="geometry" />
        </mxCell>
        <mxCell id="ZiyMYJmn_KRcL2aeEdIx-32" value="" style="group" connectable="0" vertex="1" parent="1">
          <mxGeometry x="1155" y="-440" width="100" height="30" as="geometry" />
        </mxCell>
        <mxCell id="ZiyMYJmn_KRcL2aeEdIx-15" value="" style="rounded=0;whiteSpace=wrap;html=1;sketch=1;curveFitting=1;jiggle=2;fillColor=none;container=0;" vertex="1" parent="ZiyMYJmn_KRcL2aeEdIx-32">
          <mxGeometry width="100" height="30" as="geometry" />
        </mxCell>
        <mxCell id="ZiyMYJmn_KRcL2aeEdIx-14" value="" style="html=1;verticalLabelPosition=bottom;align=center;labelBackgroundColor=#ffffff;verticalAlign=top;strokeWidth=2;strokeColor=#0080F0;shadow=0;dashed=0;shape=mxgraph.ios7.icons.user;container=0;" vertex="1" parent="ZiyMYJmn_KRcL2aeEdIx-32">
          <mxGeometry x="70" y="5" width="20" height="20" as="geometry" />
        </mxCell>
        <mxCell id="ZiyMYJmn_KRcL2aeEdIx-16" value="nome" style="text;html=1;align=center;verticalAlign=middle;whiteSpace=wrap;rounded=0;container=0;" vertex="1" parent="ZiyMYJmn_KRcL2aeEdIx-32">
          <mxGeometry width="65" height="30" as="geometry" />
        </mxCell>
        <mxCell id="ZiyMYJmn_KRcL2aeEdIx-33" value="" style="verticalLabelPosition=bottom;verticalAlign=top;html=1;shape=mxgraph.flowchart.collate;sketch=1;curveFitting=1;jiggle=2;fillColor=none;" vertex="1" parent="1">
          <mxGeometry x="675" y="-220" width="100" height="140" as="geometry" />
        </mxCell>
        <mxCell id="ZiyMYJmn_KRcL2aeEdIx-52" value="" style="group" connectable="0" vertex="1" parent="1">
          <mxGeometry x="-572" y="-1020" width="585" height="360" as="geometry" />
        </mxCell>
        <mxCell id="ZiyMYJmn_KRcL2aeEdIx-34" value="" style="rounded=0;whiteSpace=wrap;html=1;fillColor=none;sketch=1;curveFitting=1;jiggle=2;" vertex="1" parent="ZiyMYJmn_KRcL2aeEdIx-52">
          <mxGeometry x="5" width="580" height="360" as="geometry" />
        </mxCell>
        <mxCell id="ZiyMYJmn_KRcL2aeEdIx-35" value="" style="rounded=0;whiteSpace=wrap;html=1;fillColor=#7EA6E0;sketch=1;curveFitting=1;jiggle=2;strokeColor=#6c8ebf;" vertex="1" parent="ZiyMYJmn_KRcL2aeEdIx-52">
          <mxGeometry x="5" width="580" height="30" as="geometry" />
        </mxCell>
        <mxCell id="ZiyMYJmn_KRcL2aeEdIx-36" value="Home" style="html=1;shadow=0;dashed=0;shape=mxgraph.bootstrap.rrect;rSize=5;strokeColor=none;strokeWidth=1;fillColor=none;fontColor=#000000;whiteSpace=wrap;align=center;verticalAlign=middle;spacingLeft=0;fontStyle=1;fontSize=16;spacing=5;" vertex="1" parent="ZiyMYJmn_KRcL2aeEdIx-52">
          <mxGeometry x="5" width="100" height="30" as="geometry" />
        </mxCell>
        <mxCell id="ZiyMYJmn_KRcL2aeEdIx-37" value="" style="rounded=0;whiteSpace=wrap;html=1;fillColor=#dae8fc;sketch=1;curveFitting=1;jiggle=2;strokeColor=#6c8ebf;" vertex="1" parent="ZiyMYJmn_KRcL2aeEdIx-52">
          <mxGeometry x="5" y="30" width="100" height="330" as="geometry" />
        </mxCell>
        <mxCell id="ZiyMYJmn_KRcL2aeEdIx-38" value="" style="group" connectable="0" vertex="1" parent="ZiyMYJmn_KRcL2aeEdIx-52">
          <mxGeometry y="30" width="104" height="30" as="geometry" />
        </mxCell>
        <mxCell id="ZiyMYJmn_KRcL2aeEdIx-39" value="" style="rounded=0;whiteSpace=wrap;html=1;sketch=1;curveFitting=1;jiggle=2;container=0;" vertex="1" parent="ZiyMYJmn_KRcL2aeEdIx-38">
          <mxGeometry x="4" width="100" height="30" as="geometry" />
        </mxCell>
        <mxCell id="ZiyMYJmn_KRcL2aeEdIx-40" value="Equipamento" style="text;html=1;align=center;verticalAlign=middle;whiteSpace=wrap;rounded=0;container=0;" vertex="1" parent="ZiyMYJmn_KRcL2aeEdIx-38">
          <mxGeometry width="103" height="30" as="geometry" />
        </mxCell>
        <mxCell id="ZiyMYJmn_KRcL2aeEdIx-41" value="" style="group" connectable="0" vertex="1" parent="ZiyMYJmn_KRcL2aeEdIx-52">
          <mxGeometry y="60" width="104" height="30" as="geometry" />
        </mxCell>
        <mxCell id="ZiyMYJmn_KRcL2aeEdIx-42" value="" style="rounded=0;whiteSpace=wrap;html=1;sketch=1;curveFitting=1;jiggle=2;container=0;" vertex="1" parent="ZiyMYJmn_KRcL2aeEdIx-41">
          <mxGeometry x="4" width="100" height="30" as="geometry" />
        </mxCell>
        <mxCell id="ZiyMYJmn_KRcL2aeEdIx-43" value="Controle EPI" style="text;html=1;align=center;verticalAlign=middle;whiteSpace=wrap;rounded=0;container=0;" vertex="1" parent="ZiyMYJmn_KRcL2aeEdIx-41">
          <mxGeometry width="103" height="30" as="geometry" />
        </mxCell>
        <mxCell id="ZiyMYJmn_KRcL2aeEdIx-44" value="" style="group" connectable="0" vertex="1" parent="ZiyMYJmn_KRcL2aeEdIx-52">
          <mxGeometry x="5" y="90" width="100" height="30" as="geometry" />
        </mxCell>
        <mxCell id="ZiyMYJmn_KRcL2aeEdIx-45" value="" style="rounded=0;whiteSpace=wrap;html=1;sketch=1;curveFitting=1;jiggle=2;container=0;" vertex="1" parent="ZiyMYJmn_KRcL2aeEdIx-44">
          <mxGeometry width="100" height="30" as="geometry" />
        </mxCell>
        <mxCell id="ZiyMYJmn_KRcL2aeEdIx-46" value="Colaborador" style="text;html=1;align=center;verticalAlign=middle;whiteSpace=wrap;rounded=0;container=0;" vertex="1" parent="ZiyMYJmn_KRcL2aeEdIx-44">
          <mxGeometry width="99.04" height="30" as="geometry" />
        </mxCell>
        <mxCell id="ZiyMYJmn_KRcL2aeEdIx-47" value="" style="group" connectable="0" vertex="1" parent="ZiyMYJmn_KRcL2aeEdIx-52">
          <mxGeometry x="485" width="100" height="30" as="geometry" />
        </mxCell>
        <mxCell id="ZiyMYJmn_KRcL2aeEdIx-48" value="" style="rounded=0;whiteSpace=wrap;html=1;sketch=1;curveFitting=1;jiggle=2;fillColor=none;container=0;" vertex="1" parent="ZiyMYJmn_KRcL2aeEdIx-47">
          <mxGeometry width="100" height="30" as="geometry" />
        </mxCell>
        <mxCell id="ZiyMYJmn_KRcL2aeEdIx-49" value="" style="html=1;verticalLabelPosition=bottom;align=center;labelBackgroundColor=#ffffff;verticalAlign=top;strokeWidth=2;strokeColor=#0080F0;shadow=0;dashed=0;shape=mxgraph.ios7.icons.user;container=0;" vertex="1" parent="ZiyMYJmn_KRcL2aeEdIx-47">
          <mxGeometry x="70" y="5" width="20" height="20" as="geometry" />
        </mxCell>
        <mxCell id="ZiyMYJmn_KRcL2aeEdIx-50" value="nome" style="text;html=1;align=center;verticalAlign=middle;whiteSpace=wrap;rounded=0;container=0;" vertex="1" parent="ZiyMYJmn_KRcL2aeEdIx-47">
          <mxGeometry width="65" height="30" as="geometry" />
        </mxCell>
        <mxCell id="ZiyMYJmn_KRcL2aeEdIx-51" value="" style="verticalLabelPosition=bottom;verticalAlign=top;html=1;shape=mxgraph.flowchart.collate;sketch=1;curveFitting=1;jiggle=2;fillColor=none;" vertex="1" parent="ZiyMYJmn_KRcL2aeEdIx-52">
          <mxGeometry x="5" y="120" width="100" height="240" as="geometry" />
        </mxCell>
        <mxCell id="ZiyMYJmn_KRcL2aeEdIx-53" value="&lt;font style=&quot;font-size: 30px;&quot;&gt;&lt;b&gt;TELA BASE&lt;/b&gt;&lt;/font&gt;" style="text;html=1;align=center;verticalAlign=middle;whiteSpace=wrap;rounded=0;" vertex="1" parent="1">
          <mxGeometry x="-563" y="-1060" width="576" height="30" as="geometry" />
        </mxCell>
        <mxCell id="ZiyMYJmn_KRcL2aeEdIx-54" value="" style="rounded=0;whiteSpace=wrap;html=1;glass=0;sketch=1;curveFitting=1;jiggle=2;" vertex="1" parent="1">
          <mxGeometry x="674.5" y="-320" width="100" height="90" as="geometry" />
        </mxCell>
        <mxCell id="ZiyMYJmn_KRcL2aeEdIx-55" value="" style="group;fillColor=#f5f5f5;fontColor=#333333;strokeColor=#666666;fontStyle=0" connectable="0" vertex="1" parent="1">
          <mxGeometry x="674.5" y="-320" width="100" height="30" as="geometry" />
        </mxCell>
        <mxCell id="ZiyMYJmn_KRcL2aeEdIx-56" value="" style="rounded=0;whiteSpace=wrap;html=1;container=0;sketch=1;curveFitting=1;jiggle=2;fillColor=#dae8fc;strokeColor=none;" vertex="1" parent="ZiyMYJmn_KRcL2aeEdIx-55">
          <mxGeometry width="100" height="30" as="geometry" />
        </mxCell>
        <mxCell id="ZiyMYJmn_KRcL2aeEdIx-57" value="&lt;font style=&quot;font-size: 9px;&quot;&gt;Cadastrar colaborador&lt;/font&gt;" style="text;html=1;align=center;verticalAlign=middle;whiteSpace=wrap;rounded=0;container=0;" vertex="1" parent="ZiyMYJmn_KRcL2aeEdIx-55">
          <mxGeometry width="99.04" height="30" as="geometry" />
        </mxCell>
        <mxCell id="ZiyMYJmn_KRcL2aeEdIx-58" value="Menu accordion.&lt;div&gt;&lt;br&gt;&lt;/div&gt;&lt;div&gt;Ao clicar em uma opÃ§Ã£o deve abrir outros botÃµes&lt;/div&gt;" style="text;html=1;align=center;verticalAlign=middle;whiteSpace=wrap;rounded=0;" vertex="1" parent="1">
          <mxGeometry x="-753" y="-960" width="110" height="110" as="geometry" />
        </mxCell>
        <mxCell id="ZiyMYJmn_KRcL2aeEdIx-60" value="" style="curved=1;endArrow=classic;html=1;rounded=0;" edge="1" parent="1">
          <mxGeometry width="50" height="50" relative="1" as="geometry">
            <mxPoint x="-643" y="-900" as="sourcePoint" />
            <mxPoint x="-593" y="-950" as="targetPoint" />
            <Array as="points">
              <mxPoint x="-593" y="-900" />
              <mxPoint x="-643" y="-950" />
            </Array>
          </mxGeometry>
        </mxCell>
        <mxCell id="ZiyMYJmn_KRcL2aeEdIx-61" value="" style="group;fillColor=#f5f5f5;fontColor=#333333;strokeColor=#666666;fontStyle=0" connectable="0" vertex="1" parent="1">
          <mxGeometry x="674.5" y="-290" width="100" height="30" as="geometry" />
        </mxCell>
        <mxCell id="ZiyMYJmn_KRcL2aeEdIx-62" value="" style="rounded=0;whiteSpace=wrap;html=1;container=0;sketch=1;curveFitting=1;jiggle=2;fillColor=#dae8fc;strokeColor=none;" vertex="1" parent="ZiyMYJmn_KRcL2aeEdIx-61">
          <mxGeometry width="100" height="30" as="geometry" />
        </mxCell>
        <mxCell id="ZiyMYJmn_KRcL2aeEdIx-63" value="&lt;font style=&quot;font-size: 9px;&quot;&gt;RelatÃ³rios&lt;/font&gt;" style="text;html=1;align=center;verticalAlign=middle;whiteSpace=wrap;rounded=0;container=0;" vertex="1" parent="ZiyMYJmn_KRcL2aeEdIx-61">
          <mxGeometry width="99.04" height="30" as="geometry" />
        </mxCell>
        <mxCell id="zCeIXtv9JGG133PPNtVi-1" value="" style="curved=1;endArrow=classic;html=1;rounded=0;" edge="1" parent="1">
          <mxGeometry width="50" height="50" relative="1" as="geometry">
            <mxPoint x="127" y="-960" as="sourcePoint" />
            <mxPoint x="27" y="-1000" as="targetPoint" />
            <Array as="points">
              <mxPoint x="107" y="-950" />
              <mxPoint x="57" y="-940" />
              <mxPoint x="47" y="-970" />
              <mxPoint x="77" y="-980" />
              <mxPoint x="67" y="-1000" />
            </Array>
          </mxGeometry>
        </mxCell>
        <mxCell id="zCeIXtv9JGG133PPNtVi-2" value="&lt;div&gt;Ao clicar na imagem/nome deve abrir as opÃ§Ãµes de configuraÃ§Ãµes do usuÃ¡rio&lt;/div&gt;" style="text;html=1;align=center;verticalAlign=middle;whiteSpace=wrap;rounded=0;" vertex="1" parent="1">
          <mxGeometry x="130.5" y="-1110" width="110" height="110" as="geometry" />
        </mxCell>
        <mxCell id="zCeIXtv9JGG133PPNtVi-3" value="" style="rounded=0;whiteSpace=wrap;html=1;fillColor=#dae8fc;sketch=1;curveFitting=1;jiggle=2;strokeColor=#6c8ebf;" vertex="1" parent="1">
          <mxGeometry x="134" y="-1000" width="103" height="160" as="geometry" />
        </mxCell>
        <mxCell id="zCeIXtv9JGG133PPNtVi-5" value="" style="group" connectable="0" vertex="1" parent="1">
          <mxGeometry x="134" y="-870" width="100" height="30" as="geometry" />
        </mxCell>
        <mxCell id="zCeIXtv9JGG133PPNtVi-6" value="" style="rounded=0;whiteSpace=wrap;html=1;sketch=1;curveFitting=1;jiggle=2;container=0;" vertex="1" parent="zCeIXtv9JGG133PPNtVi-5">
          <mxGeometry width="100" height="30" as="geometry" />
        </mxCell>
        <mxCell id="zCeIXtv9JGG133PPNtVi-7" value="Sair" style="text;html=1;align=center;verticalAlign=middle;whiteSpace=wrap;rounded=0;container=0;" vertex="1" parent="zCeIXtv9JGG133PPNtVi-5">
          <mxGeometry width="99.04" height="30" as="geometry" />
        </mxCell>
        <mxCell id="zCeIXtv9JGG133PPNtVi-8" value="" style="group" connectable="0" vertex="1" parent="1">
          <mxGeometry x="134" y="-1000" width="100" height="30" as="geometry" />
        </mxCell>
        <mxCell id="zCeIXtv9JGG133PPNtVi-9" value="" style="rounded=0;whiteSpace=wrap;html=1;sketch=1;curveFitting=1;jiggle=2;container=0;" vertex="1" parent="zCeIXtv9JGG133PPNtVi-8">
          <mxGeometry width="100" height="30" as="geometry" />
        </mxCell>
        <mxCell id="zCeIXtv9JGG133PPNtVi-10" value="ConfiguiraÃ§Ãµes" style="text;html=1;align=center;verticalAlign=middle;whiteSpace=wrap;rounded=0;container=0;" vertex="1" parent="zCeIXtv9JGG133PPNtVi-8">
          <mxGeometry width="99.04" height="30" as="geometry" />
        </mxCell>
        <mxCell id="zCeIXtv9JGG133PPNtVi-11" value="" style="group" connectable="0" vertex="1" parent="1">
          <mxGeometry x="134" y="-970" width="100" height="30" as="geometry" />
        </mxCell>
        <mxCell id="zCeIXtv9JGG133PPNtVi-12" value="" style="rounded=0;whiteSpace=wrap;html=1;sketch=1;curveFitting=1;jiggle=2;container=0;" vertex="1" parent="zCeIXtv9JGG133PPNtVi-11">
          <mxGeometry width="100" height="30" as="geometry" />
        </mxCell>
        <mxCell id="zCeIXtv9JGG133PPNtVi-13" value="Perfil" style="text;html=1;align=center;verticalAlign=middle;whiteSpace=wrap;rounded=0;container=0;" vertex="1" parent="zCeIXtv9JGG133PPNtVi-11">
          <mxGeometry width="99.04" height="30" as="geometry" />
        </mxCell>
        <mxCell id="zCeIXtv9JGG133PPNtVi-15" value="" style="rounded=1;whiteSpace=wrap;html=1;labelBackgroundColor=none;fontColor=default;sketch=1;curveFitting=1;jiggle=2;" vertex="1" parent="1">
          <mxGeometry x="854.5" y="-350" width="320" height="230" as="geometry" />
        </mxCell>
        <mxCell id="zCeIXtv9JGG133PPNtVi-18" value="SALVAR" style="rounded=1;whiteSpace=wrap;html=1;fillColor=#d5e8d4;strokeColor=#82b366;sketch=1;curveFitting=1;jiggle=2;" vertex="1" parent="1">
          <mxGeometry x="874.5" y="-160" width="280" height="25" as="geometry" />
        </mxCell>
        <mxCell id="zCeIXtv9JGG133PPNtVi-19" value="UsuÃ¡rio cadastrado com sucesso!" style="rounded=1;whiteSpace=wrap;html=1;fillColor=#d5e8d4;strokeColor=#82b366;sketch=1;curveFitting=1;jiggle=2;" vertex="1" parent="1">
          <mxGeometry x="854.5" y="-400" width="320" height="20" as="geometry" />
        </mxCell>
        <mxCell id="zCeIXtv9JGG133PPNtVi-22" value="" style="group" connectable="0" vertex="1" parent="1">
          <mxGeometry x="874.5" y="-325" width="280" height="55" as="geometry" />
        </mxCell>
        <mxCell id="zCeIXtv9JGG133PPNtVi-20" value="xxxxxx" style="text;html=1;align=left;verticalAlign=middle;whiteSpace=wrap;rounded=0;" vertex="1" parent="zCeIXtv9JGG133PPNtVi-22">
          <mxGeometry width="280" height="30" as="geometry" />
        </mxCell>
        <mxCell id="zCeIXtv9JGG133PPNtVi-21" value="" style="rounded=1;whiteSpace=wrap;html=1;" vertex="1" parent="zCeIXtv9JGG133PPNtVi-22">
          <mxGeometry y="30" width="280" height="25" as="geometry" />
        </mxCell>
        <mxCell id="zCeIXtv9JGG133PPNtVi-23" value="" style="group" connectable="0" vertex="1" parent="1">
          <mxGeometry x="874.5" y="-260" width="280" height="55" as="geometry" />
        </mxCell>
        <mxCell id="zCeIXtv9JGG133PPNtVi-24" value="xxxxxx" style="text;html=1;align=left;verticalAlign=middle;whiteSpace=wrap;rounded=0;" vertex="1" parent="zCeIXtv9JGG133PPNtVi-23">
          <mxGeometry width="280" height="30" as="geometry" />
        </mxCell>
        <mxCell id="zCeIXtv9JGG133PPNtVi-25" value="" style="rounded=1;whiteSpace=wrap;html=1;" vertex="1" parent="zCeIXtv9JGG133PPNtVi-23">
          <mxGeometry y="30" width="280" height="25" as="geometry" />
        </mxCell>
        <mxCell id="zCeIXtv9JGG133PPNtVi-27" value="" style="curved=1;endArrow=classic;html=1;rounded=0;exitX=-0.001;exitY=0.412;exitDx=0;exitDy=0;exitPerimeter=0;entryX=1;entryY=0.5;entryDx=0;entryDy=0;" edge="1" parent="1" source="zCeIXtv9JGG133PPNtVi-15" target="ZiyMYJmn_KRcL2aeEdIx-56">
          <mxGeometry width="50" height="50" relative="1" as="geometry">
            <mxPoint x="884.5" y="-280" as="sourcePoint" />
            <mxPoint x="764.5" y="-300" as="targetPoint" />
            <Array as="points">
              <mxPoint x="804.5" y="-255" />
              <mxPoint x="784.5" y="-270" />
              <mxPoint x="824.5" y="-300" />
              <mxPoint x="794.5" y="-320" />
            </Array>
          </mxGeometry>
        </mxCell>
        <mxCell id="zCeIXtv9JGG133PPNtVi-63" value="" style="rounded=0;whiteSpace=wrap;html=1;fillColor=#f5f5f5;sketch=1;curveFitting=1;jiggle=2;fontColor=#333333;strokeColor=#666666;" vertex="1" parent="1">
          <mxGeometry x="680" y="-20" width="580" height="360" as="geometry" />
        </mxCell>
        <mxCell id="zCeIXtv9JGG133PPNtVi-64" value="" style="rounded=0;whiteSpace=wrap;html=1;fillColor=#7EA6E0;sketch=1;curveFitting=1;jiggle=2;strokeColor=#6c8ebf;" vertex="1" parent="1">
          <mxGeometry x="680" y="-20" width="580" height="30" as="geometry" />
        </mxCell>
        <mxCell id="zCeIXtv9JGG133PPNtVi-65" value="Home" style="html=1;shadow=0;dashed=0;shape=mxgraph.bootstrap.rrect;rSize=5;strokeColor=none;strokeWidth=1;fillColor=none;fontColor=#000000;whiteSpace=wrap;align=center;verticalAlign=middle;spacingLeft=0;fontStyle=1;fontSize=16;spacing=5;" vertex="1" parent="1">
          <mxGeometry x="680" y="-20" width="100" height="30" as="geometry" />
        </mxCell>
        <mxCell id="zCeIXtv9JGG133PPNtVi-66" value="" style="rounded=0;whiteSpace=wrap;html=1;fillColor=#dae8fc;sketch=1;curveFitting=1;jiggle=2;strokeColor=#6c8ebf;" vertex="1" parent="1">
          <mxGeometry x="680" y="10" width="100" height="330" as="geometry" />
        </mxCell>
        <mxCell id="zCeIXtv9JGG133PPNtVi-67" value="" style="group;fontStyle=0" connectable="0" vertex="1" parent="1">
          <mxGeometry x="675" y="10" width="104" height="30" as="geometry" />
        </mxCell>
        <mxCell id="zCeIXtv9JGG133PPNtVi-68" value="" style="rounded=0;whiteSpace=wrap;html=1;sketch=1;curveFitting=1;jiggle=2;container=0;" vertex="1" parent="zCeIXtv9JGG133PPNtVi-67">
          <mxGeometry x="4" width="100" height="30" as="geometry" />
        </mxCell>
        <mxCell id="zCeIXtv9JGG133PPNtVi-69" value="Equipamento" style="text;html=1;align=center;verticalAlign=middle;whiteSpace=wrap;rounded=0;container=0;" vertex="1" parent="zCeIXtv9JGG133PPNtVi-67">
          <mxGeometry width="103" height="30" as="geometry" />
        </mxCell>
        <mxCell id="zCeIXtv9JGG133PPNtVi-70" value="" style="group;fontStyle=0" connectable="0" vertex="1" parent="1">
          <mxGeometry x="675" y="40" width="104" height="30" as="geometry" />
        </mxCell>
        <mxCell id="zCeIXtv9JGG133PPNtVi-71" value="" style="rounded=0;whiteSpace=wrap;html=1;sketch=1;curveFitting=1;jiggle=2;container=0;" vertex="1" parent="zCeIXtv9JGG133PPNtVi-70">
          <mxGeometry x="4" width="100" height="30" as="geometry" />
        </mxCell>
        <mxCell id="zCeIXtv9JGG133PPNtVi-72" value="Controle EPI" style="text;html=1;align=center;verticalAlign=middle;whiteSpace=wrap;rounded=0;container=0;" vertex="1" parent="zCeIXtv9JGG133PPNtVi-70">
          <mxGeometry width="103" height="30" as="geometry" />
        </mxCell>
        <mxCell id="zCeIXtv9JGG133PPNtVi-73" value="" style="group;fontStyle=0" connectable="0" vertex="1" parent="1">
          <mxGeometry x="680" y="70" width="100" height="30" as="geometry" />
        </mxCell>
        <mxCell id="zCeIXtv9JGG133PPNtVi-74" value="" style="rounded=0;whiteSpace=wrap;html=1;sketch=1;curveFitting=1;jiggle=2;container=0;" vertex="1" parent="zCeIXtv9JGG133PPNtVi-73">
          <mxGeometry width="100" height="30" as="geometry" />
        </mxCell>
        <mxCell id="zCeIXtv9JGG133PPNtVi-75" value="Colaborador" style="text;html=1;align=center;verticalAlign=middle;whiteSpace=wrap;rounded=0;container=0;" vertex="1" parent="zCeIXtv9JGG133PPNtVi-73">
          <mxGeometry width="99.04" height="30" as="geometry" />
        </mxCell>
        <mxCell id="zCeIXtv9JGG133PPNtVi-76" value="" style="group" connectable="0" vertex="1" parent="1">
          <mxGeometry x="1160" y="-20" width="100" height="30" as="geometry" />
        </mxCell>
        <mxCell id="zCeIXtv9JGG133PPNtVi-77" value="" style="rounded=0;whiteSpace=wrap;html=1;sketch=1;curveFitting=1;jiggle=2;fillColor=none;container=0;" vertex="1" parent="zCeIXtv9JGG133PPNtVi-76">
          <mxGeometry width="100" height="30" as="geometry" />
        </mxCell>
        <mxCell id="zCeIXtv9JGG133PPNtVi-78" value="" style="html=1;verticalLabelPosition=bottom;align=center;labelBackgroundColor=#ffffff;verticalAlign=top;strokeWidth=2;strokeColor=#0080F0;shadow=0;dashed=0;shape=mxgraph.ios7.icons.user;container=0;" vertex="1" parent="zCeIXtv9JGG133PPNtVi-76">
          <mxGeometry x="70" y="5" width="20" height="20" as="geometry" />
        </mxCell>
        <mxCell id="zCeIXtv9JGG133PPNtVi-79" value="nome" style="text;html=1;align=center;verticalAlign=middle;whiteSpace=wrap;rounded=0;container=0;" vertex="1" parent="zCeIXtv9JGG133PPNtVi-76">
          <mxGeometry width="65" height="30" as="geometry" />
        </mxCell>
        <mxCell id="zCeIXtv9JGG133PPNtVi-80" value="" style="verticalLabelPosition=bottom;verticalAlign=top;html=1;shape=mxgraph.flowchart.collate;sketch=1;curveFitting=1;jiggle=2;fillColor=none;" vertex="1" parent="1">
          <mxGeometry x="680" y="200" width="100" height="140" as="geometry" />
        </mxCell>
        <mxCell id="zCeIXtv9JGG133PPNtVi-81" value="" style="rounded=0;whiteSpace=wrap;html=1;glass=0;sketch=1;curveFitting=1;jiggle=2;" vertex="1" parent="1">
          <mxGeometry x="679.5" y="110" width="100" height="80" as="geometry" />
        </mxCell>
        <mxCell id="zCeIXtv9JGG133PPNtVi-82" value="" style="group;fillColor=#f5f5f5;fontColor=#333333;strokeColor=#666666;fontStyle=0" connectable="0" vertex="1" parent="1">
          <mxGeometry x="679.5" y="100" width="100" height="30" as="geometry" />
        </mxCell>
        <mxCell id="zCeIXtv9JGG133PPNtVi-83" value="" style="rounded=0;whiteSpace=wrap;html=1;container=0;sketch=1;curveFitting=1;jiggle=2;fillColor=#dae8fc;strokeColor=none;" vertex="1" parent="zCeIXtv9JGG133PPNtVi-82">
          <mxGeometry width="100" height="30" as="geometry" />
        </mxCell>
        <mxCell id="zCeIXtv9JGG133PPNtVi-84" value="&lt;font style=&quot;font-size: 9px;&quot;&gt;Cadastrar colaborador&lt;/font&gt;" style="text;html=1;align=center;verticalAlign=middle;whiteSpace=wrap;rounded=0;container=0;" vertex="1" parent="zCeIXtv9JGG133PPNtVi-82">
          <mxGeometry width="99.04" height="30" as="geometry" />
        </mxCell>
        <mxCell id="zCeIXtv9JGG133PPNtVi-85" value="" style="group;fillColor=#f5f5f5;fontColor=#333333;strokeColor=#666666;fontStyle=0" connectable="0" vertex="1" parent="1">
          <mxGeometry x="679.5" y="130" width="100" height="50" as="geometry" />
        </mxCell>
        <mxCell id="zCeIXtv9JGG133PPNtVi-86" value="" style="rounded=0;whiteSpace=wrap;html=1;container=0;sketch=1;curveFitting=1;jiggle=2;fillColor=#dae8fc;strokeColor=none;" vertex="1" parent="zCeIXtv9JGG133PPNtVi-85">
          <mxGeometry width="100" height="30" as="geometry" />
        </mxCell>
        <mxCell id="zCeIXtv9JGG133PPNtVi-87" value="&lt;font style=&quot;font-size: 9px;&quot;&gt;RelatÃ³rios&lt;/font&gt;" style="text;html=1;align=center;verticalAlign=middle;whiteSpace=wrap;rounded=0;container=0;" vertex="1" parent="zCeIXtv9JGG133PPNtVi-85">
          <mxGeometry width="99.04" height="30" as="geometry" />
        </mxCell>
        <mxCell id="zCeIXtv9JGG133PPNtVi-107" value="" style="group;fillColor=#f5f5f5;fontColor=#333333;strokeColor=#666666;fontStyle=0" connectable="0" vertex="1" parent="zCeIXtv9JGG133PPNtVi-85">
          <mxGeometry y="30" width="100" height="30" as="geometry" />
        </mxCell>
        <mxCell id="zCeIXtv9JGG133PPNtVi-108" value="" style="rounded=0;whiteSpace=wrap;html=1;container=0;sketch=1;curveFitting=1;jiggle=2;fillColor=#dae8fc;strokeColor=none;" vertex="1" parent="zCeIXtv9JGG133PPNtVi-107">
          <mxGeometry width="100" height="30" as="geometry" />
        </mxCell>
        <mxCell id="zCeIXtv9JGG133PPNtVi-109" value="&lt;font style=&quot;font-size: 9px;&quot;&gt;Editar colaborador&lt;/font&gt;" style="text;html=1;align=center;verticalAlign=middle;whiteSpace=wrap;rounded=0;container=0;" vertex="1" parent="zCeIXtv9JGG133PPNtVi-107">
          <mxGeometry width="99.04" height="30" as="geometry" />
        </mxCell>
        <mxCell id="zCeIXtv9JGG133PPNtVi-88" value="&lt;font color=&quot;#999999&quot;&gt;Pesquisar um nome&lt;/font&gt;" style="rounded=1;whiteSpace=wrap;html=1;labelBackgroundColor=none;fontColor=default;sketch=1;curveFitting=1;jiggle=2;align=left;" vertex="1" parent="1">
          <mxGeometry x="859.5" y="70" width="320" height="30" as="geometry" />
        </mxCell>
        <mxCell id="zCeIXtv9JGG133PPNtVi-98" value="UsuÃ¡rio nÃ£o foi cadastrado! Preencher o campo: XXX" style="rounded=1;whiteSpace=wrap;html=1;fillColor=#f8cecc;strokeColor=#b85450;sketch=1;curveFitting=1;jiggle=2;" vertex="1" parent="1">
          <mxGeometry x="1294.5" y="-405" width="320" height="20" as="geometry" />
        </mxCell>
        <mxCell id="zCeIXtv9JGG133PPNtVi-99" value="RelatÃ³rio" style="text;html=1;align=center;verticalAlign=middle;whiteSpace=wrap;rounded=0;" vertex="1" parent="1">
          <mxGeometry x="864.5" y="40" width="310" height="30" as="geometry" />
        </mxCell>
        <mxCell id="zCeIXtv9JGG133PPNtVi-100" value="" style="shape=image;html=1;verticalAlign=top;verticalLabelPosition=bottom;labelBackgroundColor=default;imageAspect=0;aspect=fixed;image=https://cdn4.iconfinder.com/data/icons/essentials-71/24/002_-_Search-128.png;fontColor=#999999;labelBorderColor=none;sketch=1;curveFitting=1;jiggle=2;" vertex="1" parent="1">
          <mxGeometry x="1154.5" y="75" width="20" height="20" as="geometry" />
        </mxCell>
        <mxCell id="zCeIXtv9JGG133PPNtVi-102" value="" style="rounded=0;whiteSpace=wrap;html=1;sketch=1;curveFitting=1;jiggle=2;fillColor=default;" vertex="1" parent="1">
          <mxGeometry x="864.5" y="110" width="315" height="200" as="geometry" />
        </mxCell>
        <mxCell id="zCeIXtv9JGG133PPNtVi-111" value="" style="shape=table;startSize=0;container=1;collapsible=0;childLayout=tableLayout;fontSize=16;sketch=1;curveFitting=1;jiggle=2;" vertex="1" parent="1">
          <mxGeometry x="884.5" y="129" width="270" height="161" as="geometry" />
        </mxCell>
        <mxCell id="zCeIXtv9JGG133PPNtVi-112" value="" style="shape=tableRow;horizontal=0;startSize=0;swimlaneHead=0;swimlaneBody=0;strokeColor=inherit;top=0;left=0;bottom=0;right=0;collapsible=0;dropTarget=0;fillColor=none;points=[[0,0.5],[1,0.5]];portConstraint=eastwest;fontSize=16;" vertex="1" parent="zCeIXtv9JGG133PPNtVi-111">
          <mxGeometry width="270" height="21" as="geometry" />
        </mxCell>
        <mxCell id="zCeIXtv9JGG133PPNtVi-113" value="Colaborador" style="shape=partialRectangle;html=1;whiteSpace=wrap;connectable=0;strokeColor=inherit;overflow=hidden;fillColor=none;top=0;left=0;bottom=0;right=0;pointerEvents=1;fontSize=12;" vertex="1" parent="zCeIXtv9JGG133PPNtVi-112">
          <mxGeometry width="80" height="21" as="geometry">
            <mxRectangle width="80" height="21" as="alternateBounds" />
          </mxGeometry>
        </mxCell>
        <mxCell id="zCeIXtv9JGG133PPNtVi-114" value="Data" style="shape=partialRectangle;html=1;whiteSpace=wrap;connectable=0;strokeColor=inherit;overflow=hidden;fillColor=none;top=0;left=0;bottom=0;right=0;pointerEvents=1;fontSize=12;" vertex="1" parent="zCeIXtv9JGG133PPNtVi-112">
          <mxGeometry x="80" width="70" height="21" as="geometry">
            <mxRectangle width="70" height="21" as="alternateBounds" />
          </mxGeometry>
        </mxCell>
        <mxCell id="zCeIXtv9JGG133PPNtVi-115" value="Equipamento" style="shape=partialRectangle;html=1;whiteSpace=wrap;connectable=0;strokeColor=inherit;overflow=hidden;fillColor=none;top=0;left=0;bottom=0;right=0;pointerEvents=1;fontSize=12;" vertex="1" parent="zCeIXtv9JGG133PPNtVi-112">
          <mxGeometry x="150" width="120" height="21" as="geometry">
            <mxRectangle width="120" height="21" as="alternateBounds" />
          </mxGeometry>
        </mxCell>
        <mxCell id="zCeIXtv9JGG133PPNtVi-144" style="shape=tableRow;horizontal=0;startSize=0;swimlaneHead=0;swimlaneBody=0;strokeColor=inherit;top=0;left=0;bottom=0;right=0;collapsible=0;dropTarget=0;fillColor=none;points=[[0,0.5],[1,0.5]];portConstraint=eastwest;fontSize=16;" vertex="1" parent="zCeIXtv9JGG133PPNtVi-111">
          <mxGeometry y="21" width="270" height="20" as="geometry" />
        </mxCell>
        <mxCell id="zCeIXtv9JGG133PPNtVi-145" value="xx" style="shape=partialRectangle;html=1;whiteSpace=wrap;connectable=0;strokeColor=inherit;overflow=hidden;fillColor=none;top=0;left=0;bottom=0;right=0;pointerEvents=1;fontSize=12;" vertex="1" parent="zCeIXtv9JGG133PPNtVi-144">
          <mxGeometry width="80" height="20" as="geometry">
            <mxRectangle width="80" height="20" as="alternateBounds" />
          </mxGeometry>
        </mxCell>
        <mxCell id="zCeIXtv9JGG133PPNtVi-146" value="xx" style="shape=partialRectangle;html=1;whiteSpace=wrap;connectable=0;strokeColor=inherit;overflow=hidden;fillColor=none;top=0;left=0;bottom=0;right=0;pointerEvents=1;fontSize=12;" vertex="1" parent="zCeIXtv9JGG133PPNtVi-144">
          <mxGeometry x="80" width="70" height="20" as="geometry">
            <mxRectangle width="70" height="20" as="alternateBounds" />
          </mxGeometry>
        </mxCell>
        <mxCell id="zCeIXtv9JGG133PPNtVi-147" value="xx" style="shape=partialRectangle;html=1;whiteSpace=wrap;connectable=0;strokeColor=inherit;overflow=hidden;fillColor=none;top=0;left=0;bottom=0;right=0;pointerEvents=1;fontSize=12;" vertex="1" parent="zCeIXtv9JGG133PPNtVi-144">
          <mxGeometry x="150" width="120" height="20" as="geometry">
            <mxRectangle width="120" height="20" as="alternateBounds" />
          </mxGeometry>
        </mxCell>
        <mxCell id="zCeIXtv9JGG133PPNtVi-140" style="shape=tableRow;horizontal=0;startSize=0;swimlaneHead=0;swimlaneBody=0;strokeColor=inherit;top=0;left=0;bottom=0;right=0;collapsible=0;dropTarget=0;fillColor=none;points=[[0,0.5],[1,0.5]];portConstraint=eastwest;fontSize=16;" vertex="1" parent="zCeIXtv9JGG133PPNtVi-111">
          <mxGeometry y="41" width="270" height="20" as="geometry" />
        </mxCell>
        <mxCell id="zCeIXtv9JGG133PPNtVi-141" value="xx" style="shape=partialRectangle;html=1;whiteSpace=wrap;connectable=0;strokeColor=inherit;overflow=hidden;fillColor=none;top=0;left=0;bottom=0;right=0;pointerEvents=1;fontSize=12;" vertex="1" parent="zCeIXtv9JGG133PPNtVi-140">
          <mxGeometry width="80" height="20" as="geometry">
            <mxRectangle width="80" height="20" as="alternateBounds" />
          </mxGeometry>
        </mxCell>
        <mxCell id="zCeIXtv9JGG133PPNtVi-142" value="xx" style="shape=partialRectangle;html=1;whiteSpace=wrap;connectable=0;strokeColor=inherit;overflow=hidden;fillColor=none;top=0;left=0;bottom=0;right=0;pointerEvents=1;fontSize=12;" vertex="1" parent="zCeIXtv9JGG133PPNtVi-140">
          <mxGeometry x="80" width="70" height="20" as="geometry">
            <mxRectangle width="70" height="20" as="alternateBounds" />
          </mxGeometry>
        </mxCell>
        <mxCell id="zCeIXtv9JGG133PPNtVi-143" value="xx" style="shape=partialRectangle;html=1;whiteSpace=wrap;connectable=0;strokeColor=inherit;overflow=hidden;fillColor=none;top=0;left=0;bottom=0;right=0;pointerEvents=1;fontSize=12;" vertex="1" parent="zCeIXtv9JGG133PPNtVi-140">
          <mxGeometry x="150" width="120" height="20" as="geometry">
            <mxRectangle width="120" height="20" as="alternateBounds" />
          </mxGeometry>
        </mxCell>
        <mxCell id="zCeIXtv9JGG133PPNtVi-136" style="shape=tableRow;horizontal=0;startSize=0;swimlaneHead=0;swimlaneBody=0;strokeColor=inherit;top=0;left=0;bottom=0;right=0;collapsible=0;dropTarget=0;fillColor=none;points=[[0,0.5],[1,0.5]];portConstraint=eastwest;fontSize=16;" vertex="1" parent="zCeIXtv9JGG133PPNtVi-111">
          <mxGeometry y="61" width="270" height="20" as="geometry" />
        </mxCell>
        <mxCell id="zCeIXtv9JGG133PPNtVi-137" value="xx" style="shape=partialRectangle;html=1;whiteSpace=wrap;connectable=0;strokeColor=inherit;overflow=hidden;fillColor=none;top=0;left=0;bottom=0;right=0;pointerEvents=1;fontSize=12;" vertex="1" parent="zCeIXtv9JGG133PPNtVi-136">
          <mxGeometry width="80" height="20" as="geometry">
            <mxRectangle width="80" height="20" as="alternateBounds" />
          </mxGeometry>
        </mxCell>
        <mxCell id="zCeIXtv9JGG133PPNtVi-138" value="xx" style="shape=partialRectangle;html=1;whiteSpace=wrap;connectable=0;strokeColor=inherit;overflow=hidden;fillColor=none;top=0;left=0;bottom=0;right=0;pointerEvents=1;fontSize=12;" vertex="1" parent="zCeIXtv9JGG133PPNtVi-136">
          <mxGeometry x="80" width="70" height="20" as="geometry">
            <mxRectangle width="70" height="20" as="alternateBounds" />
          </mxGeometry>
        </mxCell>
        <mxCell id="zCeIXtv9JGG133PPNtVi-139" value="xx" style="shape=partialRectangle;html=1;whiteSpace=wrap;connectable=0;strokeColor=inherit;overflow=hidden;fillColor=none;top=0;left=0;bottom=0;right=0;pointerEvents=1;fontSize=12;" vertex="1" parent="zCeIXtv9JGG133PPNtVi-136">
          <mxGeometry x="150" width="120" height="20" as="geometry">
            <mxRectangle width="120" height="20" as="alternateBounds" />
          </mxGeometry>
        </mxCell>
        <mxCell id="zCeIXtv9JGG133PPNtVi-132" style="shape=tableRow;horizontal=0;startSize=0;swimlaneHead=0;swimlaneBody=0;strokeColor=inherit;top=0;left=0;bottom=0;right=0;collapsible=0;dropTarget=0;fillColor=none;points=[[0,0.5],[1,0.5]];portConstraint=eastwest;fontSize=16;" vertex="1" parent="zCeIXtv9JGG133PPNtVi-111">
          <mxGeometry y="81" width="270" height="20" as="geometry" />
        </mxCell>
        <mxCell id="zCeIXtv9JGG133PPNtVi-133" value="xx" style="shape=partialRectangle;html=1;whiteSpace=wrap;connectable=0;strokeColor=inherit;overflow=hidden;fillColor=none;top=0;left=0;bottom=0;right=0;pointerEvents=1;fontSize=12;" vertex="1" parent="zCeIXtv9JGG133PPNtVi-132">
          <mxGeometry width="80" height="20" as="geometry">
            <mxRectangle width="80" height="20" as="alternateBounds" />
          </mxGeometry>
        </mxCell>
        <mxCell id="zCeIXtv9JGG133PPNtVi-134" value="xx" style="shape=partialRectangle;html=1;whiteSpace=wrap;connectable=0;strokeColor=inherit;overflow=hidden;fillColor=none;top=0;left=0;bottom=0;right=0;pointerEvents=1;fontSize=12;" vertex="1" parent="zCeIXtv9JGG133PPNtVi-132">
          <mxGeometry x="80" width="70" height="20" as="geometry">
            <mxRectangle width="70" height="20" as="alternateBounds" />
          </mxGeometry>
        </mxCell>
        <mxCell id="zCeIXtv9JGG133PPNtVi-135" value="xx" style="shape=partialRectangle;html=1;whiteSpace=wrap;connectable=0;strokeColor=inherit;overflow=hidden;fillColor=none;top=0;left=0;bottom=0;right=0;pointerEvents=1;fontSize=12;" vertex="1" parent="zCeIXtv9JGG133PPNtVi-132">
          <mxGeometry x="150" width="120" height="20" as="geometry">
            <mxRectangle width="120" height="20" as="alternateBounds" />
          </mxGeometry>
        </mxCell>
        <mxCell id="zCeIXtv9JGG133PPNtVi-128" style="shape=tableRow;horizontal=0;startSize=0;swimlaneHead=0;swimlaneBody=0;strokeColor=inherit;top=0;left=0;bottom=0;right=0;collapsible=0;dropTarget=0;fillColor=none;points=[[0,0.5],[1,0.5]];portConstraint=eastwest;fontSize=16;" vertex="1" parent="zCeIXtv9JGG133PPNtVi-111">
          <mxGeometry y="101" width="270" height="20" as="geometry" />
        </mxCell>
        <mxCell id="zCeIXtv9JGG133PPNtVi-129" value="xx" style="shape=partialRectangle;html=1;whiteSpace=wrap;connectable=0;strokeColor=inherit;overflow=hidden;fillColor=none;top=0;left=0;bottom=0;right=0;pointerEvents=1;fontSize=12;" vertex="1" parent="zCeIXtv9JGG133PPNtVi-128">
          <mxGeometry width="80" height="20" as="geometry">
            <mxRectangle width="80" height="20" as="alternateBounds" />
          </mxGeometry>
        </mxCell>
        <mxCell id="zCeIXtv9JGG133PPNtVi-130" value="xx" style="shape=partialRectangle;html=1;whiteSpace=wrap;connectable=0;strokeColor=inherit;overflow=hidden;fillColor=none;top=0;left=0;bottom=0;right=0;pointerEvents=1;fontSize=12;" vertex="1" parent="zCeIXtv9JGG133PPNtVi-128">
          <mxGeometry x="80" width="70" height="20" as="geometry">
            <mxRectangle width="70" height="20" as="alternateBounds" />
          </mxGeometry>
        </mxCell>
        <mxCell id="zCeIXtv9JGG133PPNtVi-131" value="xx" style="shape=partialRectangle;html=1;whiteSpace=wrap;connectable=0;strokeColor=inherit;overflow=hidden;fillColor=none;top=0;left=0;bottom=0;right=0;pointerEvents=1;fontSize=12;" vertex="1" parent="zCeIXtv9JGG133PPNtVi-128">
          <mxGeometry x="150" width="120" height="20" as="geometry">
            <mxRectangle width="120" height="20" as="alternateBounds" />
          </mxGeometry>
        </mxCell>
        <mxCell id="zCeIXtv9JGG133PPNtVi-124" style="shape=tableRow;horizontal=0;startSize=0;swimlaneHead=0;swimlaneBody=0;strokeColor=inherit;top=0;left=0;bottom=0;right=0;collapsible=0;dropTarget=0;fillColor=none;points=[[0,0.5],[1,0.5]];portConstraint=eastwest;fontSize=16;" vertex="1" parent="zCeIXtv9JGG133PPNtVi-111">
          <mxGeometry y="121" width="270" height="20" as="geometry" />
        </mxCell>
        <mxCell id="zCeIXtv9JGG133PPNtVi-125" value="xx" style="shape=partialRectangle;html=1;whiteSpace=wrap;connectable=0;strokeColor=inherit;overflow=hidden;fillColor=none;top=0;left=0;bottom=0;right=0;pointerEvents=1;fontSize=12;" vertex="1" parent="zCeIXtv9JGG133PPNtVi-124">
          <mxGeometry width="80" height="20" as="geometry">
            <mxRectangle width="80" height="20" as="alternateBounds" />
          </mxGeometry>
        </mxCell>
        <mxCell id="zCeIXtv9JGG133PPNtVi-126" value="xx" style="shape=partialRectangle;html=1;whiteSpace=wrap;connectable=0;strokeColor=inherit;overflow=hidden;fillColor=none;top=0;left=0;bottom=0;right=0;pointerEvents=1;fontSize=12;" vertex="1" parent="zCeIXtv9JGG133PPNtVi-124">
          <mxGeometry x="80" width="70" height="20" as="geometry">
            <mxRectangle width="70" height="20" as="alternateBounds" />
          </mxGeometry>
        </mxCell>
        <mxCell id="zCeIXtv9JGG133PPNtVi-127" value="xx" style="shape=partialRectangle;html=1;whiteSpace=wrap;connectable=0;strokeColor=inherit;overflow=hidden;fillColor=none;top=0;left=0;bottom=0;right=0;pointerEvents=1;fontSize=12;" vertex="1" parent="zCeIXtv9JGG133PPNtVi-124">
          <mxGeometry x="150" width="120" height="20" as="geometry">
            <mxRectangle width="120" height="20" as="alternateBounds" />
          </mxGeometry>
        </mxCell>
        <mxCell id="zCeIXtv9JGG133PPNtVi-120" value="" style="shape=tableRow;horizontal=0;startSize=0;swimlaneHead=0;swimlaneBody=0;strokeColor=inherit;top=0;left=0;bottom=0;right=0;collapsible=0;dropTarget=0;fillColor=none;points=[[0,0.5],[1,0.5]];portConstraint=eastwest;fontSize=16;" vertex="1" parent="zCeIXtv9JGG133PPNtVi-111">
          <mxGeometry y="141" width="270" height="20" as="geometry" />
        </mxCell>
        <mxCell id="zCeIXtv9JGG133PPNtVi-121" value="xx" style="shape=partialRectangle;html=1;whiteSpace=wrap;connectable=0;strokeColor=inherit;overflow=hidden;fillColor=none;top=0;left=0;bottom=0;right=0;pointerEvents=1;fontSize=12;" vertex="1" parent="zCeIXtv9JGG133PPNtVi-120">
          <mxGeometry width="80" height="20" as="geometry">
            <mxRectangle width="80" height="20" as="alternateBounds" />
          </mxGeometry>
        </mxCell>
        <mxCell id="zCeIXtv9JGG133PPNtVi-122" value="xx" style="shape=partialRectangle;html=1;whiteSpace=wrap;connectable=0;strokeColor=inherit;overflow=hidden;fillColor=none;top=0;left=0;bottom=0;right=0;pointerEvents=1;fontSize=12;" vertex="1" parent="zCeIXtv9JGG133PPNtVi-120">
          <mxGeometry x="80" width="70" height="20" as="geometry">
            <mxRectangle width="70" height="20" as="alternateBounds" />
          </mxGeometry>
        </mxCell>
        <mxCell id="zCeIXtv9JGG133PPNtVi-123" value="xx" style="shape=partialRectangle;html=1;whiteSpace=wrap;connectable=0;strokeColor=inherit;overflow=hidden;fillColor=none;top=0;left=0;bottom=0;right=0;pointerEvents=1;fontSize=12;" vertex="1" parent="zCeIXtv9JGG133PPNtVi-120">
          <mxGeometry x="150" width="120" height="20" as="geometry">
            <mxRectangle width="120" height="20" as="alternateBounds" />
          </mxGeometry>
        </mxCell>
        <mxCell id="zCeIXtv9JGG133PPNtVi-150" value="" style="curved=1;endArrow=classic;html=1;rounded=0;exitX=-0.001;exitY=0.412;exitDx=0;exitDy=0;exitPerimeter=0;entryX=1;entryY=0.5;entryDx=0;entryDy=0;" edge="1" parent="1">
          <mxGeometry width="50" height="50" relative="1" as="geometry">
            <mxPoint x="860" y="195" as="sourcePoint" />
            <mxPoint x="780" y="145" as="targetPoint" />
            <Array as="points">
              <mxPoint x="810" y="195" />
              <mxPoint x="790" y="180" />
              <mxPoint x="830" y="150" />
              <mxPoint x="800" y="130" />
            </Array>
          </mxGeometry>
        </mxCell>
        <mxCell id="zCeIXtv9JGG133PPNtVi-152" value="" style="rounded=0;whiteSpace=wrap;html=1;sketch=1;curveFitting=1;jiggle=2;fillColor=default;" vertex="1" parent="1">
          <mxGeometry x="1274.5" y="110" width="315" height="200" as="geometry" />
        </mxCell>
        <mxCell id="zCeIXtv9JGG133PPNtVi-151" value="Desculpe, mas nÃ£o encontramos dados correspondentes Ã  sua busca &lt;br&gt;:(" style="text;html=1;align=center;verticalAlign=middle;whiteSpace=wrap;rounded=0;" vertex="1" parent="1">
          <mxGeometry x="1284.5" y="139.5" width="300" height="40" as="geometry" />
        </mxCell>
        <mxCell id="zCeIXtv9JGG133PPNtVi-153" value="Quando nÃ£o tiver dados no banco ou nÃ£o for encontrado informaÃ§Ã£o na pesquisa. Exibir a mensagem abaixo" style="text;html=1;align=center;verticalAlign=middle;whiteSpace=wrap;rounded=0;" vertex="1" parent="1">
          <mxGeometry x="1284.5" y="65" width="290" height="40" as="geometry" />
        </mxCell>
        <mxCell id="zCeIXtv9JGG133PPNtVi-154" value="" style="group;fillColor=#f5f5f5;fontColor=#333333;strokeColor=#666666;fontStyle=0" connectable="0" vertex="1" parent="1">
          <mxGeometry x="674.5" y="-260" width="100" height="30" as="geometry" />
        </mxCell>
        <mxCell id="zCeIXtv9JGG133PPNtVi-155" value="" style="rounded=0;whiteSpace=wrap;html=1;container=0;sketch=1;curveFitting=1;jiggle=2;fillColor=#dae8fc;strokeColor=none;" vertex="1" parent="zCeIXtv9JGG133PPNtVi-154">
          <mxGeometry width="100" height="30" as="geometry" />
        </mxCell>
        <mxCell id="zCeIXtv9JGG133PPNtVi-156" value="&lt;font style=&quot;font-size: 9px;&quot;&gt;Editar colaborador&lt;/font&gt;" style="text;html=1;align=center;verticalAlign=middle;whiteSpace=wrap;rounded=0;container=0;" vertex="1" parent="zCeIXtv9JGG133PPNtVi-154">
          <mxGeometry width="99.04" height="30" as="geometry" />
        </mxCell>
        <mxCell id="zCeIXtv9JGG133PPNtVi-158" value="&lt;font style=&quot;font-size: 30px;&quot;&gt;&lt;b&gt;Tela de colaborador&lt;/b&gt;&lt;/font&gt;" style="text;html=1;align=center;verticalAlign=middle;whiteSpace=wrap;rounded=0;" vertex="1" parent="1">
          <mxGeometry x="677" y="-540" width="576" height="30" as="geometry" />
        </mxCell>
        <mxCell id="zCeIXtv9JGG133PPNtVi-160" value="" style="rounded=0;whiteSpace=wrap;html=1;fillColor=#f5f5f5;sketch=1;curveFitting=1;jiggle=2;fontColor=#333333;strokeColor=#666666;" vertex="1" parent="1">
          <mxGeometry x="685" y="410" width="580" height="360" as="geometry" />
        </mxCell>
        <mxCell id="zCeIXtv9JGG133PPNtVi-161" value="" style="rounded=0;whiteSpace=wrap;html=1;fillColor=#7EA6E0;sketch=1;curveFitting=1;jiggle=2;strokeColor=#6c8ebf;" vertex="1" parent="1">
          <mxGeometry x="685" y="410" width="580" height="30" as="geometry" />
        </mxCell>
        <mxCell id="zCeIXtv9JGG133PPNtVi-162" value="Home" style="html=1;shadow=0;dashed=0;shape=mxgraph.bootstrap.rrect;rSize=5;strokeColor=none;strokeWidth=1;fillColor=none;fontColor=#000000;whiteSpace=wrap;align=center;verticalAlign=middle;spacingLeft=0;fontStyle=1;fontSize=16;spacing=5;" vertex="1" parent="1">
          <mxGeometry x="685" y="410" width="100" height="30" as="geometry" />
        </mxCell>
        <mxCell id="zCeIXtv9JGG133PPNtVi-163" value="" style="rounded=0;whiteSpace=wrap;html=1;fillColor=#dae8fc;sketch=1;curveFitting=1;jiggle=2;strokeColor=#6c8ebf;" vertex="1" parent="1">
          <mxGeometry x="685" y="440" width="100" height="330" as="geometry" />
        </mxCell>
        <mxCell id="zCeIXtv9JGG133PPNtVi-164" value="" style="group;fontStyle=0" connectable="0" vertex="1" parent="1">
          <mxGeometry x="680" y="440" width="104" height="30" as="geometry" />
        </mxCell>
        <mxCell id="zCeIXtv9JGG133PPNtVi-165" value="" style="rounded=0;whiteSpace=wrap;html=1;sketch=1;curveFitting=1;jiggle=2;container=0;" vertex="1" parent="zCeIXtv9JGG133PPNtVi-164">
          <mxGeometry x="4" width="100" height="30" as="geometry" />
        </mxCell>
        <mxCell id="zCeIXtv9JGG133PPNtVi-166" value="Equipamento" style="text;html=1;align=center;verticalAlign=middle;whiteSpace=wrap;rounded=0;container=0;" vertex="1" parent="zCeIXtv9JGG133PPNtVi-164">
          <mxGeometry width="103" height="30" as="geometry" />
        </mxCell>
        <mxCell id="zCeIXtv9JGG133PPNtVi-167" value="" style="group;fontStyle=0" connectable="0" vertex="1" parent="1">
          <mxGeometry x="680" y="470" width="104" height="30" as="geometry" />
        </mxCell>
        <mxCell id="zCeIXtv9JGG133PPNtVi-168" value="" style="rounded=0;whiteSpace=wrap;html=1;sketch=1;curveFitting=1;jiggle=2;container=0;" vertex="1" parent="zCeIXtv9JGG133PPNtVi-167">
          <mxGeometry x="4" width="100" height="30" as="geometry" />
        </mxCell>
        <mxCell id="zCeIXtv9JGG133PPNtVi-169" value="Controle EPI" style="text;html=1;align=center;verticalAlign=middle;whiteSpace=wrap;rounded=0;container=0;" vertex="1" parent="zCeIXtv9JGG133PPNtVi-167">
          <mxGeometry width="103" height="30" as="geometry" />
        </mxCell>
        <mxCell id="zCeIXtv9JGG133PPNtVi-170" value="" style="group;fontStyle=0" connectable="0" vertex="1" parent="1">
          <mxGeometry x="685" y="500" width="100" height="30" as="geometry" />
        </mxCell>
        <mxCell id="zCeIXtv9JGG133PPNtVi-171" value="" style="rounded=0;whiteSpace=wrap;html=1;sketch=1;curveFitting=1;jiggle=2;container=0;" vertex="1" parent="zCeIXtv9JGG133PPNtVi-170">
          <mxGeometry width="100" height="30" as="geometry" />
        </mxCell>
        <mxCell id="zCeIXtv9JGG133PPNtVi-172" value="Colaborador" style="text;html=1;align=center;verticalAlign=middle;whiteSpace=wrap;rounded=0;container=0;" vertex="1" parent="zCeIXtv9JGG133PPNtVi-170">
          <mxGeometry width="99.04" height="30" as="geometry" />
        </mxCell>
        <mxCell id="zCeIXtv9JGG133PPNtVi-173" value="" style="group" connectable="0" vertex="1" parent="1">
          <mxGeometry x="1165" y="410" width="100" height="30" as="geometry" />
        </mxCell>
        <mxCell id="zCeIXtv9JGG133PPNtVi-174" value="" style="rounded=0;whiteSpace=wrap;html=1;sketch=1;curveFitting=1;jiggle=2;fillColor=none;container=0;" vertex="1" parent="zCeIXtv9JGG133PPNtVi-173">
          <mxGeometry width="100" height="30" as="geometry" />
        </mxCell>
        <mxCell id="zCeIXtv9JGG133PPNtVi-175" value="" style="html=1;verticalLabelPosition=bottom;align=center;labelBackgroundColor=#ffffff;verticalAlign=top;strokeWidth=2;strokeColor=#0080F0;shadow=0;dashed=0;shape=mxgraph.ios7.icons.user;container=0;" vertex="1" parent="zCeIXtv9JGG133PPNtVi-173">
          <mxGeometry x="70" y="5" width="20" height="20" as="geometry" />
        </mxCell>
        <mxCell id="zCeIXtv9JGG133PPNtVi-176" value="nome" style="text;html=1;align=center;verticalAlign=middle;whiteSpace=wrap;rounded=0;container=0;" vertex="1" parent="zCeIXtv9JGG133PPNtVi-173">
          <mxGeometry width="65" height="30" as="geometry" />
        </mxCell>
        <mxCell id="zCeIXtv9JGG133PPNtVi-177" value="" style="verticalLabelPosition=bottom;verticalAlign=top;html=1;shape=mxgraph.flowchart.collate;sketch=1;curveFitting=1;jiggle=2;fillColor=none;" vertex="1" parent="1">
          <mxGeometry x="685" y="630" width="100" height="140" as="geometry" />
        </mxCell>
        <mxCell id="zCeIXtv9JGG133PPNtVi-178" value="" style="rounded=0;whiteSpace=wrap;html=1;glass=0;sketch=1;curveFitting=1;jiggle=2;" vertex="1" parent="1">
          <mxGeometry x="684.5" y="540" width="100" height="80" as="geometry" />
        </mxCell>
        <mxCell id="zCeIXtv9JGG133PPNtVi-179" value="" style="group;fillColor=#f5f5f5;fontColor=#333333;strokeColor=#666666;fontStyle=0" connectable="0" vertex="1" parent="1">
          <mxGeometry x="684.5" y="530" width="100" height="30" as="geometry" />
        </mxCell>
        <mxCell id="zCeIXtv9JGG133PPNtVi-180" value="" style="rounded=0;whiteSpace=wrap;html=1;container=0;sketch=1;curveFitting=1;jiggle=2;fillColor=#dae8fc;strokeColor=none;" vertex="1" parent="zCeIXtv9JGG133PPNtVi-179">
          <mxGeometry width="100" height="30" as="geometry" />
        </mxCell>
        <mxCell id="zCeIXtv9JGG133PPNtVi-181" value="&lt;font style=&quot;font-size: 9px;&quot;&gt;Cadastrar colaborador&lt;/font&gt;" style="text;html=1;align=center;verticalAlign=middle;whiteSpace=wrap;rounded=0;container=0;" vertex="1" parent="zCeIXtv9JGG133PPNtVi-179">
          <mxGeometry width="99.04" height="30" as="geometry" />
        </mxCell>
        <mxCell id="zCeIXtv9JGG133PPNtVi-182" value="" style="group;fillColor=#f5f5f5;fontColor=#333333;strokeColor=#666666;fontStyle=0" connectable="0" vertex="1" parent="1">
          <mxGeometry x="684.5" y="560" width="100" height="50" as="geometry" />
        </mxCell>
        <mxCell id="zCeIXtv9JGG133PPNtVi-183" value="" style="rounded=0;whiteSpace=wrap;html=1;container=0;sketch=1;curveFitting=1;jiggle=2;fillColor=#dae8fc;strokeColor=none;" vertex="1" parent="zCeIXtv9JGG133PPNtVi-182">
          <mxGeometry width="100" height="30" as="geometry" />
        </mxCell>
        <mxCell id="zCeIXtv9JGG133PPNtVi-184" value="&lt;font style=&quot;font-size: 9px;&quot;&gt;RelatÃ³rios&lt;/font&gt;" style="text;html=1;align=center;verticalAlign=middle;whiteSpace=wrap;rounded=0;container=0;" vertex="1" parent="zCeIXtv9JGG133PPNtVi-182">
          <mxGeometry width="99.04" height="30" as="geometry" />
        </mxCell>
        <mxCell id="zCeIXtv9JGG133PPNtVi-185" value="" style="group;fillColor=#f5f5f5;fontColor=#333333;strokeColor=#666666;fontStyle=0" connectable="0" vertex="1" parent="zCeIXtv9JGG133PPNtVi-182">
          <mxGeometry y="30" width="100" height="30" as="geometry" />
        </mxCell>
        <mxCell id="zCeIXtv9JGG133PPNtVi-186" value="" style="rounded=0;whiteSpace=wrap;html=1;container=0;sketch=1;curveFitting=1;jiggle=2;fillColor=#dae8fc;strokeColor=none;" vertex="1" parent="zCeIXtv9JGG133PPNtVi-185">
          <mxGeometry width="100" height="30" as="geometry" />
        </mxCell>
        <mxCell id="zCeIXtv9JGG133PPNtVi-187" value="&lt;font style=&quot;font-size: 9px;&quot;&gt;Editar colaborador&lt;/font&gt;" style="text;html=1;align=center;verticalAlign=middle;whiteSpace=wrap;rounded=0;container=0;" vertex="1" parent="zCeIXtv9JGG133PPNtVi-185">
          <mxGeometry width="99.04" height="30" as="geometry" />
        </mxCell>
        <mxCell id="zCeIXtv9JGG133PPNtVi-188" value="&lt;font color=&quot;#999999&quot;&gt;Pesquisar pelo nome&lt;/font&gt;" style="rounded=1;whiteSpace=wrap;html=1;labelBackgroundColor=none;fontColor=default;sketch=1;curveFitting=1;jiggle=2;align=left;" vertex="1" parent="1">
          <mxGeometry x="864.5" y="490" width="320" height="30" as="geometry" />
        </mxCell>
        <mxCell id="zCeIXtv9JGG133PPNtVi-190" value="Pesquisar usuÃ¡rio" style="text;html=1;align=center;verticalAlign=middle;whiteSpace=wrap;rounded=0;" vertex="1" parent="1">
          <mxGeometry x="869.5" y="460" width="310" height="30" as="geometry" />
        </mxCell>
        <mxCell id="zCeIXtv9JGG133PPNtVi-191" value="" style="shape=image;html=1;verticalAlign=top;verticalLabelPosition=bottom;labelBackgroundColor=default;imageAspect=0;aspect=fixed;image=https://cdn4.iconfinder.com/data/icons/essentials-71/24/002_-_Search-128.png;fontColor=#999999;labelBorderColor=none;sketch=1;curveFitting=1;jiggle=2;" vertex="1" parent="1">
          <mxGeometry x="1159.5" y="495" width="20" height="20" as="geometry" />
        </mxCell>
        <mxCell id="zCeIXtv9JGG133PPNtVi-192" value="" style="rounded=0;whiteSpace=wrap;html=1;sketch=1;curveFitting=1;jiggle=2;fillColor=default;" vertex="1" parent="1">
          <mxGeometry x="869.5" y="530" width="315" height="200" as="geometry" />
        </mxCell>
        <mxCell id="zCeIXtv9JGG133PPNtVi-193" value="" style="shape=table;startSize=0;container=1;collapsible=0;childLayout=tableLayout;fontSize=16;sketch=1;curveFitting=1;jiggle=2;" vertex="1" parent="1">
          <mxGeometry x="889.5" y="549" width="270" height="161" as="geometry" />
        </mxCell>
        <mxCell id="zCeIXtv9JGG133PPNtVi-194" value="" style="shape=tableRow;horizontal=0;startSize=0;swimlaneHead=0;swimlaneBody=0;strokeColor=inherit;top=0;left=0;bottom=0;right=0;collapsible=0;dropTarget=0;fillColor=none;points=[[0,0.5],[1,0.5]];portConstraint=eastwest;fontSize=16;" vertex="1" parent="zCeIXtv9JGG133PPNtVi-193">
          <mxGeometry width="270" height="21" as="geometry" />
        </mxCell>
        <mxCell id="zCeIXtv9JGG133PPNtVi-195" value="campo" style="shape=partialRectangle;html=1;whiteSpace=wrap;connectable=0;strokeColor=inherit;overflow=hidden;fillColor=none;top=0;left=0;bottom=0;right=0;pointerEvents=1;fontSize=12;" vertex="1" parent="zCeIXtv9JGG133PPNtVi-194">
          <mxGeometry width="80" height="21" as="geometry">
            <mxRectangle width="80" height="21" as="alternateBounds" />
          </mxGeometry>
        </mxCell>
        <mxCell id="zCeIXtv9JGG133PPNtVi-196" value="cam&lt;span style=&quot;background-color: initial;&quot;&gt;po&lt;/span&gt;" style="shape=partialRectangle;html=1;whiteSpace=wrap;connectable=0;strokeColor=inherit;overflow=hidden;fillColor=none;top=0;left=0;bottom=0;right=0;pointerEvents=1;fontSize=12;" vertex="1" parent="zCeIXtv9JGG133PPNtVi-194">
          <mxGeometry x="80" width="70" height="21" as="geometry">
            <mxRectangle width="70" height="21" as="alternateBounds" />
          </mxGeometry>
        </mxCell>
        <mxCell id="zCeIXtv9JGG133PPNtVi-197" value="aÃ§Ã£o" style="shape=partialRectangle;html=1;whiteSpace=wrap;connectable=0;strokeColor=inherit;overflow=hidden;fillColor=none;top=0;left=0;bottom=0;right=0;pointerEvents=1;fontSize=12;" vertex="1" parent="zCeIXtv9JGG133PPNtVi-194">
          <mxGeometry x="150" width="120" height="21" as="geometry">
            <mxRectangle width="120" height="21" as="alternateBounds" />
          </mxGeometry>
        </mxCell>
        <mxCell id="zCeIXtv9JGG133PPNtVi-198" style="shape=tableRow;horizontal=0;startSize=0;swimlaneHead=0;swimlaneBody=0;strokeColor=inherit;top=0;left=0;bottom=0;right=0;collapsible=0;dropTarget=0;fillColor=none;points=[[0,0.5],[1,0.5]];portConstraint=eastwest;fontSize=16;" vertex="1" parent="zCeIXtv9JGG133PPNtVi-193">
          <mxGeometry y="21" width="270" height="20" as="geometry" />
        </mxCell>
        <mxCell id="zCeIXtv9JGG133PPNtVi-199" value="xx" style="shape=partialRectangle;html=1;whiteSpace=wrap;connectable=0;strokeColor=inherit;overflow=hidden;fillColor=none;top=0;left=0;bottom=0;right=0;pointerEvents=1;fontSize=12;" vertex="1" parent="zCeIXtv9JGG133PPNtVi-198">
          <mxGeometry width="80" height="20" as="geometry">
            <mxRectangle width="80" height="20" as="alternateBounds" />
          </mxGeometry>
        </mxCell>
        <mxCell id="zCeIXtv9JGG133PPNtVi-200" value="xx" style="shape=partialRectangle;html=1;whiteSpace=wrap;connectable=0;strokeColor=inherit;overflow=hidden;fillColor=none;top=0;left=0;bottom=0;right=0;pointerEvents=1;fontSize=12;" vertex="1" parent="zCeIXtv9JGG133PPNtVi-198">
          <mxGeometry x="80" width="70" height="20" as="geometry">
            <mxRectangle width="70" height="20" as="alternateBounds" />
          </mxGeometry>
        </mxCell>
        <mxCell id="zCeIXtv9JGG133PPNtVi-201" value="" style="shape=partialRectangle;html=1;whiteSpace=wrap;connectable=0;strokeColor=inherit;overflow=hidden;fillColor=none;top=0;left=0;bottom=0;right=0;pointerEvents=1;fontSize=12;" vertex="1" parent="zCeIXtv9JGG133PPNtVi-198">
          <mxGeometry x="150" width="120" height="20" as="geometry">
            <mxRectangle width="120" height="20" as="alternateBounds" />
          </mxGeometry>
        </mxCell>
        <mxCell id="zCeIXtv9JGG133PPNtVi-202" style="shape=tableRow;horizontal=0;startSize=0;swimlaneHead=0;swimlaneBody=0;strokeColor=inherit;top=0;left=0;bottom=0;right=0;collapsible=0;dropTarget=0;fillColor=none;points=[[0,0.5],[1,0.5]];portConstraint=eastwest;fontSize=16;" vertex="1" parent="zCeIXtv9JGG133PPNtVi-193">
          <mxGeometry y="41" width="270" height="20" as="geometry" />
        </mxCell>
        <mxCell id="zCeIXtv9JGG133PPNtVi-203" value="xx" style="shape=partialRectangle;html=1;whiteSpace=wrap;connectable=0;strokeColor=inherit;overflow=hidden;fillColor=none;top=0;left=0;bottom=0;right=0;pointerEvents=1;fontSize=12;" vertex="1" parent="zCeIXtv9JGG133PPNtVi-202">
          <mxGeometry width="80" height="20" as="geometry">
            <mxRectangle width="80" height="20" as="alternateBounds" />
          </mxGeometry>
        </mxCell>
        <mxCell id="zCeIXtv9JGG133PPNtVi-204" value="xx" style="shape=partialRectangle;html=1;whiteSpace=wrap;connectable=0;strokeColor=inherit;overflow=hidden;fillColor=none;top=0;left=0;bottom=0;right=0;pointerEvents=1;fontSize=12;" vertex="1" parent="zCeIXtv9JGG133PPNtVi-202">
          <mxGeometry x="80" width="70" height="20" as="geometry">
            <mxRectangle width="70" height="20" as="alternateBounds" />
          </mxGeometry>
        </mxCell>
        <mxCell id="zCeIXtv9JGG133PPNtVi-205" value="" style="shape=partialRectangle;html=1;whiteSpace=wrap;connectable=0;strokeColor=inherit;overflow=hidden;fillColor=none;top=0;left=0;bottom=0;right=0;pointerEvents=1;fontSize=12;" vertex="1" parent="zCeIXtv9JGG133PPNtVi-202">
          <mxGeometry x="150" width="120" height="20" as="geometry">
            <mxRectangle width="120" height="20" as="alternateBounds" />
          </mxGeometry>
        </mxCell>
        <mxCell id="zCeIXtv9JGG133PPNtVi-206" style="shape=tableRow;horizontal=0;startSize=0;swimlaneHead=0;swimlaneBody=0;strokeColor=inherit;top=0;left=0;bottom=0;right=0;collapsible=0;dropTarget=0;fillColor=none;points=[[0,0.5],[1,0.5]];portConstraint=eastwest;fontSize=16;" vertex="1" parent="zCeIXtv9JGG133PPNtVi-193">
          <mxGeometry y="61" width="270" height="20" as="geometry" />
        </mxCell>
        <mxCell id="zCeIXtv9JGG133PPNtVi-207" value="xx" style="shape=partialRectangle;html=1;whiteSpace=wrap;connectable=0;strokeColor=inherit;overflow=hidden;fillColor=none;top=0;left=0;bottom=0;right=0;pointerEvents=1;fontSize=12;" vertex="1" parent="zCeIXtv9JGG133PPNtVi-206">
          <mxGeometry width="80" height="20" as="geometry">
            <mxRectangle width="80" height="20" as="alternateBounds" />
          </mxGeometry>
        </mxCell>
        <mxCell id="zCeIXtv9JGG133PPNtVi-208" value="xx" style="shape=partialRectangle;html=1;whiteSpace=wrap;connectable=0;strokeColor=inherit;overflow=hidden;fillColor=none;top=0;left=0;bottom=0;right=0;pointerEvents=1;fontSize=12;" vertex="1" parent="zCeIXtv9JGG133PPNtVi-206">
          <mxGeometry x="80" width="70" height="20" as="geometry">
            <mxRectangle width="70" height="20" as="alternateBounds" />
          </mxGeometry>
        </mxCell>
        <mxCell id="zCeIXtv9JGG133PPNtVi-209" value="" style="shape=partialRectangle;html=1;whiteSpace=wrap;connectable=0;strokeColor=inherit;overflow=hidden;fillColor=none;top=0;left=0;bottom=0;right=0;pointerEvents=1;fontSize=12;" vertex="1" parent="zCeIXtv9JGG133PPNtVi-206">
          <mxGeometry x="150" width="120" height="20" as="geometry">
            <mxRectangle width="120" height="20" as="alternateBounds" />
          </mxGeometry>
        </mxCell>
        <mxCell id="zCeIXtv9JGG133PPNtVi-210" style="shape=tableRow;horizontal=0;startSize=0;swimlaneHead=0;swimlaneBody=0;strokeColor=inherit;top=0;left=0;bottom=0;right=0;collapsible=0;dropTarget=0;fillColor=none;points=[[0,0.5],[1,0.5]];portConstraint=eastwest;fontSize=16;" vertex="1" parent="zCeIXtv9JGG133PPNtVi-193">
          <mxGeometry y="81" width="270" height="20" as="geometry" />
        </mxCell>
        <mxCell id="zCeIXtv9JGG133PPNtVi-211" value="xx" style="shape=partialRectangle;html=1;whiteSpace=wrap;connectable=0;strokeColor=inherit;overflow=hidden;fillColor=none;top=0;left=0;bottom=0;right=0;pointerEvents=1;fontSize=12;" vertex="1" parent="zCeIXtv9JGG133PPNtVi-210">
          <mxGeometry width="80" height="20" as="geometry">
            <mxRectangle width="80" height="20" as="alternateBounds" />
          </mxGeometry>
        </mxCell>
        <mxCell id="zCeIXtv9JGG133PPNtVi-212" value="xx" style="shape=partialRectangle;html=1;whiteSpace=wrap;connectable=0;strokeColor=inherit;overflow=hidden;fillColor=none;top=0;left=0;bottom=0;right=0;pointerEvents=1;fontSize=12;" vertex="1" parent="zCeIXtv9JGG133PPNtVi-210">
          <mxGeometry x="80" width="70" height="20" as="geometry">
            <mxRectangle width="70" height="20" as="alternateBounds" />
          </mxGeometry>
        </mxCell>
        <mxCell id="zCeIXtv9JGG133PPNtVi-213" value="" style="shape=partialRectangle;html=1;whiteSpace=wrap;connectable=0;strokeColor=inherit;overflow=hidden;fillColor=none;top=0;left=0;bottom=0;right=0;pointerEvents=1;fontSize=12;" vertex="1" parent="zCeIXtv9JGG133PPNtVi-210">
          <mxGeometry x="150" width="120" height="20" as="geometry">
            <mxRectangle width="120" height="20" as="alternateBounds" />
          </mxGeometry>
        </mxCell>
        <mxCell id="zCeIXtv9JGG133PPNtVi-214" style="shape=tableRow;horizontal=0;startSize=0;swimlaneHead=0;swimlaneBody=0;strokeColor=inherit;top=0;left=0;bottom=0;right=0;collapsible=0;dropTarget=0;fillColor=none;points=[[0,0.5],[1,0.5]];portConstraint=eastwest;fontSize=16;" vertex="1" parent="zCeIXtv9JGG133PPNtVi-193">
          <mxGeometry y="101" width="270" height="20" as="geometry" />
        </mxCell>
        <mxCell id="zCeIXtv9JGG133PPNtVi-215" value="xx" style="shape=partialRectangle;html=1;whiteSpace=wrap;connectable=0;strokeColor=inherit;overflow=hidden;fillColor=none;top=0;left=0;bottom=0;right=0;pointerEvents=1;fontSize=12;" vertex="1" parent="zCeIXtv9JGG133PPNtVi-214">
          <mxGeometry width="80" height="20" as="geometry">
            <mxRectangle width="80" height="20" as="alternateBounds" />
          </mxGeometry>
        </mxCell>
        <mxCell id="zCeIXtv9JGG133PPNtVi-216" value="xx" style="shape=partialRectangle;html=1;whiteSpace=wrap;connectable=0;strokeColor=inherit;overflow=hidden;fillColor=none;top=0;left=0;bottom=0;right=0;pointerEvents=1;fontSize=12;" vertex="1" parent="zCeIXtv9JGG133PPNtVi-214">
          <mxGeometry x="80" width="70" height="20" as="geometry">
            <mxRectangle width="70" height="20" as="alternateBounds" />
          </mxGeometry>
        </mxCell>
        <mxCell id="zCeIXtv9JGG133PPNtVi-217" value="" style="shape=partialRectangle;html=1;whiteSpace=wrap;connectable=0;strokeColor=inherit;overflow=hidden;fillColor=none;top=0;left=0;bottom=0;right=0;pointerEvents=1;fontSize=12;" vertex="1" parent="zCeIXtv9JGG133PPNtVi-214">
          <mxGeometry x="150" width="120" height="20" as="geometry">
            <mxRectangle width="120" height="20" as="alternateBounds" />
          </mxGeometry>
        </mxCell>
        <mxCell id="zCeIXtv9JGG133PPNtVi-218" style="shape=tableRow;horizontal=0;startSize=0;swimlaneHead=0;swimlaneBody=0;strokeColor=inherit;top=0;left=0;bottom=0;right=0;collapsible=0;dropTarget=0;fillColor=none;points=[[0,0.5],[1,0.5]];portConstraint=eastwest;fontSize=16;" vertex="1" parent="zCeIXtv9JGG133PPNtVi-193">
          <mxGeometry y="121" width="270" height="20" as="geometry" />
        </mxCell>
        <mxCell id="zCeIXtv9JGG133PPNtVi-219" value="xx" style="shape=partialRectangle;html=1;whiteSpace=wrap;connectable=0;strokeColor=inherit;overflow=hidden;fillColor=none;top=0;left=0;bottom=0;right=0;pointerEvents=1;fontSize=12;" vertex="1" parent="zCeIXtv9JGG133PPNtVi-218">
          <mxGeometry width="80" height="20" as="geometry">
            <mxRectangle width="80" height="20" as="alternateBounds" />
          </mxGeometry>
        </mxCell>
        <mxCell id="zCeIXtv9JGG133PPNtVi-220" value="xx" style="shape=partialRectangle;html=1;whiteSpace=wrap;connectable=0;strokeColor=inherit;overflow=hidden;fillColor=none;top=0;left=0;bottom=0;right=0;pointerEvents=1;fontSize=12;" vertex="1" parent="zCeIXtv9JGG133PPNtVi-218">
          <mxGeometry x="80" width="70" height="20" as="geometry">
            <mxRectangle width="70" height="20" as="alternateBounds" />
          </mxGeometry>
        </mxCell>
        <mxCell id="zCeIXtv9JGG133PPNtVi-221" value="" style="shape=partialRectangle;html=1;whiteSpace=wrap;connectable=0;strokeColor=inherit;overflow=hidden;fillColor=none;top=0;left=0;bottom=0;right=0;pointerEvents=1;fontSize=12;" vertex="1" parent="zCeIXtv9JGG133PPNtVi-218">
          <mxGeometry x="150" width="120" height="20" as="geometry">
            <mxRectangle width="120" height="20" as="alternateBounds" />
          </mxGeometry>
        </mxCell>
        <mxCell id="zCeIXtv9JGG133PPNtVi-222" value="" style="shape=tableRow;horizontal=0;startSize=0;swimlaneHead=0;swimlaneBody=0;strokeColor=inherit;top=0;left=0;bottom=0;right=0;collapsible=0;dropTarget=0;fillColor=none;points=[[0,0.5],[1,0.5]];portConstraint=eastwest;fontSize=16;" vertex="1" parent="zCeIXtv9JGG133PPNtVi-193">
          <mxGeometry y="141" width="270" height="20" as="geometry" />
        </mxCell>
        <mxCell id="zCeIXtv9JGG133PPNtVi-223" value="xx" style="shape=partialRectangle;html=1;whiteSpace=wrap;connectable=0;strokeColor=inherit;overflow=hidden;fillColor=none;top=0;left=0;bottom=0;right=0;pointerEvents=1;fontSize=12;" vertex="1" parent="zCeIXtv9JGG133PPNtVi-222">
          <mxGeometry width="80" height="20" as="geometry">
            <mxRectangle width="80" height="20" as="alternateBounds" />
          </mxGeometry>
        </mxCell>
        <mxCell id="zCeIXtv9JGG133PPNtVi-224" value="xx" style="shape=partialRectangle;html=1;whiteSpace=wrap;connectable=0;strokeColor=inherit;overflow=hidden;fillColor=none;top=0;left=0;bottom=0;right=0;pointerEvents=1;fontSize=12;" vertex="1" parent="zCeIXtv9JGG133PPNtVi-222">
          <mxGeometry x="80" width="70" height="20" as="geometry">
            <mxRectangle width="70" height="20" as="alternateBounds" />
          </mxGeometry>
        </mxCell>
        <mxCell id="zCeIXtv9JGG133PPNtVi-225" value="" style="shape=partialRectangle;html=1;whiteSpace=wrap;connectable=0;strokeColor=inherit;overflow=hidden;fillColor=none;top=0;left=0;bottom=0;right=0;pointerEvents=1;fontSize=12;" vertex="1" parent="zCeIXtv9JGG133PPNtVi-222">
          <mxGeometry x="150" width="120" height="20" as="geometry">
            <mxRectangle width="120" height="20" as="alternateBounds" />
          </mxGeometry>
        </mxCell>
        <mxCell id="zCeIXtv9JGG133PPNtVi-226" value="x" style="text;html=1;align=center;verticalAlign=middle;whiteSpace=wrap;rounded=0;fontColor=#4D4D4D;fontStyle=1" vertex="1" parent="1">
          <mxGeometry x="1154.5" y="-400" width="20" height="20" as="geometry" />
        </mxCell>
        <mxCell id="zCeIXtv9JGG133PPNtVi-227" value="" style="curved=1;endArrow=classic;html=1;rounded=0;exitX=-0.001;exitY=0.412;exitDx=0;exitDy=0;exitPerimeter=0;entryX=1;entryY=0.5;entryDx=0;entryDy=0;flowAnimation=0;" edge="1" parent="1" target="zCeIXtv9JGG133PPNtVi-163">
          <mxGeometry width="50" height="50" relative="1" as="geometry">
            <mxPoint x="865" y="625" as="sourcePoint" />
            <mxPoint x="785" y="575" as="targetPoint" />
            <Array as="points">
              <mxPoint x="835" y="640" />
              <mxPoint x="820" y="625" />
              <mxPoint x="830" y="600" />
              <mxPoint x="840" y="590" />
              <mxPoint x="840" y="580" />
              <mxPoint x="830" y="570" />
              <mxPoint x="810" y="570" />
            </Array>
          </mxGeometry>
        </mxCell>
        <mxCell id="zCeIXtv9JGG133PPNtVi-228" value="" style="rounded=0;whiteSpace=wrap;html=1;sketch=1;curveFitting=1;jiggle=2;fillColor=default;" vertex="1" parent="1">
          <mxGeometry x="1279.5" y="549.5" width="315" height="200" as="geometry" />
        </mxCell>
        <mxCell id="zCeIXtv9JGG133PPNtVi-229" value="Desculpe, mas nÃ£o encontramos dados correspondentes Ã  sua busca &lt;br&gt;:(" style="text;html=1;align=center;verticalAlign=middle;whiteSpace=wrap;rounded=0;" vertex="1" parent="1">
          <mxGeometry x="1289.5" y="569.5" width="300" height="40" as="geometry" />
        </mxCell>
        <mxCell id="zCeIXtv9JGG133PPNtVi-230" value="Quando nÃ£o tiver dados no banco ou nÃ£o for encontrado informaÃ§Ã£o na pesquisa. Exibir a mensagem abaixo" style="text;html=1;align=center;verticalAlign=middle;whiteSpace=wrap;rounded=0;" vertex="1" parent="1">
          <mxGeometry x="1289.5" y="495" width="290" height="40" as="geometry" />
        </mxCell>
        <mxCell id="zCeIXtv9JGG133PPNtVi-232" value="Editar" style="rounded=1;whiteSpace=wrap;html=1;sketch=1;curveFitting=1;jiggle=2;fillColor=#ffe6cc;strokeColor=#d79b00;" vertex="1" parent="1">
          <mxGeometry x="1110" y="690" width="41" height="20" as="geometry" />
        </mxCell>
        <mxCell id="zCeIXtv9JGG133PPNtVi-233" value="Deletar" style="rounded=1;whiteSpace=wrap;html=1;sketch=1;curveFitting=1;jiggle=2;fillColor=#f8cecc;strokeColor=#b85450;" vertex="1" parent="1">
          <mxGeometry x="1050" y="690" width="51" height="20" as="geometry" />
        </mxCell>
        <mxCell id="zCeIXtv9JGG133PPNtVi-234" value="Editar" style="rounded=1;whiteSpace=wrap;html=1;sketch=1;curveFitting=1;jiggle=2;fillColor=#ffe6cc;strokeColor=#d79b00;" vertex="1" parent="1">
          <mxGeometry x="1110" y="670" width="41" height="20" as="geometry" />
        </mxCell>
        <mxCell id="zCeIXtv9JGG133PPNtVi-235" value="Deletar" style="rounded=1;whiteSpace=wrap;html=1;sketch=1;curveFitting=1;jiggle=2;fillColor=#f8cecc;strokeColor=#b85450;" vertex="1" parent="1">
          <mxGeometry x="1050" y="670" width="51" height="20" as="geometry" />
        </mxCell>
        <mxCell id="zCeIXtv9JGG133PPNtVi-236" value="Editar" style="rounded=1;whiteSpace=wrap;html=1;sketch=1;curveFitting=1;jiggle=2;fillColor=#ffe6cc;strokeColor=#d79b00;" vertex="1" parent="1">
          <mxGeometry x="1110" y="650" width="41" height="20" as="geometry" />
        </mxCell>
        <mxCell id="zCeIXtv9JGG133PPNtVi-237" value="Deletar" style="rounded=1;whiteSpace=wrap;html=1;sketch=1;curveFitting=1;jiggle=2;fillColor=#f8cecc;strokeColor=#b85450;" vertex="1" parent="1">
          <mxGeometry x="1050" y="650" width="51" height="20" as="geometry" />
        </mxCell>
        <mxCell id="zCeIXtv9JGG133PPNtVi-238" value="Editar" style="rounded=1;whiteSpace=wrap;html=1;sketch=1;curveFitting=1;jiggle=2;fillColor=#ffe6cc;strokeColor=#d79b00;" vertex="1" parent="1">
          <mxGeometry x="1110" y="630" width="41" height="20" as="geometry" />
        </mxCell>
        <mxCell id="zCeIXtv9JGG133PPNtVi-239" value="Deletar" style="rounded=1;whiteSpace=wrap;html=1;sketch=1;curveFitting=1;jiggle=2;fillColor=#f8cecc;strokeColor=#b85450;" vertex="1" parent="1">
          <mxGeometry x="1050" y="630" width="51" height="20" as="geometry" />
        </mxCell>
        <mxCell id="zCeIXtv9JGG133PPNtVi-240" value="Editar" style="rounded=1;whiteSpace=wrap;html=1;sketch=1;curveFitting=1;jiggle=2;fillColor=#ffe6cc;strokeColor=#d79b00;" vertex="1" parent="1">
          <mxGeometry x="1110" y="610" width="41" height="20" as="geometry" />
        </mxCell>
        <mxCell id="zCeIXtv9JGG133PPNtVi-241" value="Deletar" style="rounded=1;whiteSpace=wrap;html=1;sketch=1;curveFitting=1;jiggle=2;fillColor=#f8cecc;strokeColor=#b85450;" vertex="1" parent="1">
          <mxGeometry x="1050" y="610" width="51" height="20" as="geometry" />
        </mxCell>
        <mxCell id="zCeIXtv9JGG133PPNtVi-242" value="Editar" style="rounded=1;whiteSpace=wrap;html=1;sketch=1;curveFitting=1;jiggle=2;fillColor=#ffe6cc;strokeColor=#d79b00;" vertex="1" parent="1">
          <mxGeometry x="1110" y="590" width="41" height="20" as="geometry" />
        </mxCell>
        <mxCell id="zCeIXtv9JGG133PPNtVi-243" value="Deletar" style="rounded=1;whiteSpace=wrap;html=1;sketch=1;curveFitting=1;jiggle=2;fillColor=#f8cecc;strokeColor=#b85450;" vertex="1" parent="1">
          <mxGeometry x="1050" y="590" width="51" height="20" as="geometry" />
        </mxCell>
        <mxCell id="zCeIXtv9JGG133PPNtVi-244" value="Editar" style="rounded=1;whiteSpace=wrap;html=1;sketch=1;curveFitting=1;jiggle=2;fillColor=#ffe6cc;strokeColor=#d79b00;" vertex="1" parent="1">
          <mxGeometry x="1110" y="569" width="41" height="20" as="geometry" />
        </mxCell>
        <mxCell id="zCeIXtv9JGG133PPNtVi-245" value="Deletar" style="rounded=1;whiteSpace=wrap;html=1;sketch=1;curveFitting=1;jiggle=2;fillColor=#f8cecc;strokeColor=#b85450;" vertex="1" parent="1">
          <mxGeometry x="1050" y="569" width="51" height="20" as="geometry" />
        </mxCell>
        <mxCell id="zCeIXtv9JGG133PPNtVi-248" value="" style="rounded=1;whiteSpace=wrap;html=1;labelBackgroundColor=none;fontColor=default;sketch=1;curveFitting=1;jiggle=2;" vertex="1" parent="1">
          <mxGeometry x="1179.5" y="880" width="320" height="230" as="geometry" />
        </mxCell>
        <mxCell id="zCeIXtv9JGG133PPNtVi-249" value="SALVAR" style="rounded=1;whiteSpace=wrap;html=1;fillColor=#d5e8d4;strokeColor=#82b366;sketch=1;curveFitting=1;jiggle=2;" vertex="1" parent="1">
          <mxGeometry x="1199.5" y="1070" width="280" height="25" as="geometry" />
        </mxCell>
        <mxCell id="zCeIXtv9JGG133PPNtVi-250" value="" style="group" connectable="0" vertex="1" parent="1">
          <mxGeometry x="1199.5" y="905" width="280" height="55" as="geometry" />
        </mxCell>
        <mxCell id="zCeIXtv9JGG133PPNtVi-251" value="xxxxxx" style="text;html=1;align=left;verticalAlign=middle;whiteSpace=wrap;rounded=0;" vertex="1" parent="zCeIXtv9JGG133PPNtVi-250">
          <mxGeometry width="280" height="30" as="geometry" />
        </mxCell>
        <mxCell id="zCeIXtv9JGG133PPNtVi-252" value="xxx" style="rounded=1;whiteSpace=wrap;html=1;align=left;fontColor=#4D4D4D;" vertex="1" parent="zCeIXtv9JGG133PPNtVi-250">
          <mxGeometry y="30" width="280" height="25" as="geometry" />
        </mxCell>
        <mxCell id="zCeIXtv9JGG133PPNtVi-253" value="" style="group" connectable="0" vertex="1" parent="1">
          <mxGeometry x="1199.5" y="970" width="280" height="55" as="geometry" />
        </mxCell>
        <mxCell id="zCeIXtv9JGG133PPNtVi-254" value="xxxxxx" style="text;html=1;align=left;verticalAlign=middle;whiteSpace=wrap;rounded=0;" vertex="1" parent="zCeIXtv9JGG133PPNtVi-253">
          <mxGeometry width="280" height="30" as="geometry" />
        </mxCell>
        <mxCell id="zCeIXtv9JGG133PPNtVi-255" value="&lt;font color=&quot;#4d4d4d&quot;&gt;xxxx&lt;/font&gt;" style="rounded=1;whiteSpace=wrap;html=1;align=left;" vertex="1" parent="zCeIXtv9JGG133PPNtVi-253">
          <mxGeometry y="30" width="280" height="25" as="geometry" />
        </mxCell>
        <mxCell id="zCeIXtv9JGG133PPNtVi-257" value="" style="curved=1;endArrow=classic;html=1;rounded=0;exitX=0.5;exitY=1;exitDx=0;exitDy=0;flowAnimation=0;entryX=0.37;entryY=-0.009;entryDx=0;entryDy=0;entryPerimeter=0;" edge="1" parent="1" source="zCeIXtv9JGG133PPNtVi-232" target="zCeIXtv9JGG133PPNtVi-248">
          <mxGeometry width="50" height="50" relative="1" as="geometry">
            <mxPoint x="1050" y="790" as="sourcePoint" />
            <mxPoint x="1290" y="870" as="targetPoint" />
            <Array as="points">
              <mxPoint x="1110" y="790" />
              <mxPoint x="1170" y="840" />
              <mxPoint x="1260" y="810" />
            </Array>
          </mxGeometry>
        </mxCell>
        <mxCell id="zCeIXtv9JGG133PPNtVi-259" value="Ao clicar no botÃ£o de editar deve aparecer a tela de editar que deve conter os mesmos elementos da tela de cadastrar. PorÃ©m ao editar deve mostrar os valores dos usuÃ¡rios nos campos" style="text;html=1;align=center;verticalAlign=middle;whiteSpace=wrap;rounded=0;" vertex="1" parent="1">
          <mxGeometry x="1200" y="1120" width="290" height="40" as="geometry" />
        </mxCell>
        <mxCell id="zCeIXtv9JGG133PPNtVi-260" value="" style="rounded=1;whiteSpace=wrap;html=1;sketch=1;curveFitting=1;jiggle=2;" vertex="1" parent="1">
          <mxGeometry x="779" y="880" width="281" height="150" as="geometry" />
        </mxCell>
        <mxCell id="zCeIXtv9JGG133PPNtVi-262" value="&lt;h1 style=&quot;margin-top: 0px;&quot;&gt;&lt;font style=&quot;font-size: 18px;&quot;&gt;Remover UsuÃ¡rio&lt;/font&gt;&lt;/h1&gt;&lt;h1 style=&quot;margin-top: 0px;&quot;&gt;&lt;span style=&quot;background-color: initial; font-size: 12px; font-weight: normal;&quot;&gt;VocÃª quer remover esse usuÃ¡rio?&amp;nbsp;&lt;/span&gt;&lt;/h1&gt;" style="text;html=1;whiteSpace=wrap;overflow=hidden;rounded=0;align=center;" vertex="1" parent="1">
          <mxGeometry x="780" y="880" width="280" height="110" as="geometry" />
        </mxCell>
        <mxCell id="zCeIXtv9JGG133PPNtVi-263" value="Remover!" style="rounded=1;whiteSpace=wrap;html=1;fillColor=#f8cecc;strokeColor=#b85450;sketch=1;curveFitting=1;jiggle=2;" vertex="1" parent="1">
          <mxGeometry x="935" y="990" width="80" height="30" as="geometry" />
        </mxCell>
        <mxCell id="zCeIXtv9JGG133PPNtVi-264" value="Cancelar" style="rounded=1;whiteSpace=wrap;html=1;fillColor=#f5f5f5;fontColor=#333333;strokeColor=#666666;sketch=1;curveFitting=1;jiggle=2;" vertex="1" parent="1">
          <mxGeometry x="830" y="990" width="80" height="30" as="geometry" />
        </mxCell>
        <mxCell id="zCeIXtv9JGG133PPNtVi-265" value="" style="curved=1;endArrow=classic;html=1;rounded=0;exitX=0.577;exitY=1.029;exitDx=0;exitDy=0;exitPerimeter=0;entryX=0.482;entryY=0.013;entryDx=0;entryDy=0;entryPerimeter=0;" edge="1" parent="1" source="zCeIXtv9JGG133PPNtVi-233" target="zCeIXtv9JGG133PPNtVi-262">
          <mxGeometry width="50" height="50" relative="1" as="geometry">
            <mxPoint x="940" y="810" as="sourcePoint" />
            <mxPoint x="1200" y="850" as="targetPoint" />
            <Array as="points">
              <mxPoint x="1090" y="850" />
              <mxPoint x="940" y="770" />
            </Array>
          </mxGeometry>
        </mxCell>
        <mxCell id="zCeIXtv9JGG133PPNtVi-266" value="Ao clicar no botÃ£o de remover deve aparecer um model/alert para realizar a confirmaÃ§Ã£o" style="text;html=1;align=center;verticalAlign=middle;whiteSpace=wrap;rounded=0;" vertex="1" parent="1">
          <mxGeometry x="779" y="1050" width="281" height="40" as="geometry" />
        </mxCell>
        <mxCell id="l2iuPfOXZToAjTSz2PRP-42" value="" style="rounded=0;whiteSpace=wrap;html=1;fillColor=#f5f5f5;sketch=1;curveFitting=1;jiggle=2;fontColor=#333333;strokeColor=#666666;" vertex="1" parent="1">
          <mxGeometry x="-568.75" y="-440" width="580" height="360" as="geometry" />
        </mxCell>
        <mxCell id="l2iuPfOXZToAjTSz2PRP-43" value="" style="rounded=0;whiteSpace=wrap;html=1;fillColor=#7EA6E0;sketch=1;curveFitting=1;jiggle=2;strokeColor=#6c8ebf;" vertex="1" parent="1">
          <mxGeometry x="-568.75" y="-440" width="580" height="30" as="geometry" />
        </mxCell>
        <mxCell id="l2iuPfOXZToAjTSz2PRP-44" value="Home" style="html=1;shadow=0;dashed=0;shape=mxgraph.bootstrap.rrect;rSize=5;strokeColor=none;strokeWidth=1;fillColor=none;fontColor=#000000;whiteSpace=wrap;align=center;verticalAlign=middle;spacingLeft=0;fontStyle=1;fontSize=16;spacing=5;" vertex="1" parent="1">
          <mxGeometry x="-568.75" y="-440" width="100" height="30" as="geometry" />
        </mxCell>
        <mxCell id="l2iuPfOXZToAjTSz2PRP-45" value="" style="rounded=0;whiteSpace=wrap;html=1;fillColor=#dae8fc;sketch=1;curveFitting=1;jiggle=2;strokeColor=#6c8ebf;" vertex="1" parent="1">
          <mxGeometry x="-568.75" y="-410" width="100" height="330" as="geometry" />
        </mxCell>
        <mxCell id="l2iuPfOXZToAjTSz2PRP-46" value="" style="group;fontStyle=0" connectable="0" vertex="1" parent="1">
          <mxGeometry x="-573.75" y="-410" width="104" height="40" as="geometry" />
        </mxCell>
        <mxCell id="l2iuPfOXZToAjTSz2PRP-47" value="" style="rounded=0;whiteSpace=wrap;html=1;sketch=1;curveFitting=1;jiggle=2;container=0;" vertex="1" parent="l2iuPfOXZToAjTSz2PRP-46">
          <mxGeometry x="4" width="100" height="30" as="geometry" />
        </mxCell>
        <mxCell id="l2iuPfOXZToAjTSz2PRP-48" value="Equipamento" style="text;html=1;align=center;verticalAlign=middle;whiteSpace=wrap;rounded=0;container=0;" vertex="1" parent="l2iuPfOXZToAjTSz2PRP-46">
          <mxGeometry width="103" height="30" as="geometry" />
        </mxCell>
        <mxCell id="l2iuPfOXZToAjTSz2PRP-55" value="" style="group" connectable="0" vertex="1" parent="1">
          <mxGeometry x="-88.75" y="-440" width="100" height="30" as="geometry" />
        </mxCell>
        <mxCell id="l2iuPfOXZToAjTSz2PRP-56" value="" style="rounded=0;whiteSpace=wrap;html=1;sketch=1;curveFitting=1;jiggle=2;fillColor=none;container=0;" vertex="1" parent="l2iuPfOXZToAjTSz2PRP-55">
          <mxGeometry width="100" height="30" as="geometry" />
        </mxCell>
        <mxCell id="l2iuPfOXZToAjTSz2PRP-57" value="" style="html=1;verticalLabelPosition=bottom;align=center;labelBackgroundColor=#ffffff;verticalAlign=top;strokeWidth=2;strokeColor=#0080F0;shadow=0;dashed=0;shape=mxgraph.ios7.icons.user;container=0;" vertex="1" parent="l2iuPfOXZToAjTSz2PRP-55">
          <mxGeometry x="70" y="5" width="20" height="20" as="geometry" />
        </mxCell>
        <mxCell id="l2iuPfOXZToAjTSz2PRP-58" value="nome" style="text;html=1;align=center;verticalAlign=middle;whiteSpace=wrap;rounded=0;container=0;" vertex="1" parent="l2iuPfOXZToAjTSz2PRP-55">
          <mxGeometry width="65" height="30" as="geometry" />
        </mxCell>
        <mxCell id="l2iuPfOXZToAjTSz2PRP-59" value="" style="verticalLabelPosition=bottom;verticalAlign=top;html=1;shape=mxgraph.flowchart.collate;sketch=1;curveFitting=1;jiggle=2;fillColor=none;" vertex="1" parent="1">
          <mxGeometry x="-568.75" y="-260" width="100" height="180" as="geometry" />
        </mxCell>
        <mxCell id="l2iuPfOXZToAjTSz2PRP-60" value="" style="rounded=0;whiteSpace=wrap;html=1;glass=0;sketch=1;curveFitting=1;jiggle=2;" vertex="1" parent="1">
          <mxGeometry x="-569.25" y="-380" width="100" height="120" as="geometry" />
        </mxCell>
        <mxCell id="l2iuPfOXZToAjTSz2PRP-67" value="" style="rounded=1;whiteSpace=wrap;html=1;labelBackgroundColor=none;fontColor=default;sketch=1;curveFitting=1;jiggle=2;" vertex="1" parent="1">
          <mxGeometry x="-389.25" y="-350" width="320" height="230" as="geometry" />
        </mxCell>
        <mxCell id="l2iuPfOXZToAjTSz2PRP-68" value="SALVAR" style="rounded=1;whiteSpace=wrap;html=1;fillColor=#d5e8d4;strokeColor=#82b366;sketch=1;curveFitting=1;jiggle=2;" vertex="1" parent="1">
          <mxGeometry x="-369.25" y="-160" width="280" height="25" as="geometry" />
        </mxCell>
        <mxCell id="l2iuPfOXZToAjTSz2PRP-69" value="Equipamento cadastrado com sucesso!" style="rounded=1;whiteSpace=wrap;html=1;fillColor=#d5e8d4;strokeColor=#82b366;sketch=1;curveFitting=1;jiggle=2;" vertex="1" parent="1">
          <mxGeometry x="-389.25" y="-400" width="320" height="20" as="geometry" />
        </mxCell>
        <mxCell id="l2iuPfOXZToAjTSz2PRP-70" value="" style="group" connectable="0" vertex="1" parent="1">
          <mxGeometry x="-369.25" y="-325" width="280" height="55" as="geometry" />
        </mxCell>
        <mxCell id="l2iuPfOXZToAjTSz2PRP-71" value="xxxxxx" style="text;html=1;align=left;verticalAlign=middle;whiteSpace=wrap;rounded=0;" vertex="1" parent="l2iuPfOXZToAjTSz2PRP-70">
          <mxGeometry width="280" height="30" as="geometry" />
        </mxCell>
        <mxCell id="l2iuPfOXZToAjTSz2PRP-72" value="" style="rounded=1;whiteSpace=wrap;html=1;" vertex="1" parent="l2iuPfOXZToAjTSz2PRP-70">
          <mxGeometry y="30" width="280" height="25" as="geometry" />
        </mxCell>
        <mxCell id="l2iuPfOXZToAjTSz2PRP-73" value="" style="group" connectable="0" vertex="1" parent="1">
          <mxGeometry x="-369.25" y="-260" width="280" height="55" as="geometry" />
        </mxCell>
        <mxCell id="l2iuPfOXZToAjTSz2PRP-74" value="xxxxxx" style="text;html=1;align=left;verticalAlign=middle;whiteSpace=wrap;rounded=0;" vertex="1" parent="l2iuPfOXZToAjTSz2PRP-73">
          <mxGeometry width="280" height="30" as="geometry" />
        </mxCell>
        <mxCell id="l2iuPfOXZToAjTSz2PRP-75" value="" style="rounded=1;whiteSpace=wrap;html=1;" vertex="1" parent="l2iuPfOXZToAjTSz2PRP-73">
          <mxGeometry y="30" width="280" height="25" as="geometry" />
        </mxCell>
        <mxCell id="l2iuPfOXZToAjTSz2PRP-76" value="" style="curved=1;endArrow=classic;html=1;rounded=0;exitX=-0.001;exitY=0.412;exitDx=0;exitDy=0;exitPerimeter=0;entryX=1;entryY=0.5;entryDx=0;entryDy=0;" edge="1" parent="1" source="l2iuPfOXZToAjTSz2PRP-67" target="l2iuPfOXZToAjTSz2PRP-63">
          <mxGeometry width="50" height="50" relative="1" as="geometry">
            <mxPoint x="-359.25" y="-280" as="sourcePoint" />
            <mxPoint x="-479.25" y="-300" as="targetPoint" />
            <Array as="points">
              <mxPoint x="-439.25" y="-255" />
              <mxPoint x="-463.75" y="-300" />
              <mxPoint x="-403.75" y="-320" />
              <mxPoint x="-413.75" y="-380" />
            </Array>
          </mxGeometry>
        </mxCell>
        <mxCell id="l2iuPfOXZToAjTSz2PRP-77" value="Equipamento&amp;nbsp;nÃ£o foi cadastrado! Preencher o campo: XXX" style="rounded=1;whiteSpace=wrap;html=1;fillColor=#f8cecc;strokeColor=#b85450;sketch=1;curveFitting=1;jiggle=2;" vertex="1" parent="1">
          <mxGeometry x="50.75" y="-405" width="320" height="20" as="geometry" />
        </mxCell>
        <mxCell id="l2iuPfOXZToAjTSz2PRP-81" value="&lt;font style=&quot;font-size: 30px;&quot;&gt;&lt;b&gt;Tela de equipamento&lt;/b&gt;&lt;/font&gt;" style="text;html=1;align=center;verticalAlign=middle;whiteSpace=wrap;rounded=0;" vertex="1" parent="1">
          <mxGeometry x="-566.75" y="-540" width="576" height="30" as="geometry" />
        </mxCell>
        <mxCell id="l2iuPfOXZToAjTSz2PRP-82" value="x" style="text;html=1;align=center;verticalAlign=middle;whiteSpace=wrap;rounded=0;fontColor=#4D4D4D;fontStyle=1" vertex="1" parent="1">
          <mxGeometry x="-89.25" y="-400" width="20" height="20" as="geometry" />
        </mxCell>
        <mxCell id="l2iuPfOXZToAjTSz2PRP-78" value="" style="group;fillColor=#f5f5f5;fontColor=#333333;strokeColor=#666666;fontStyle=0" connectable="0" vertex="1" parent="1">
          <mxGeometry x="-568.75" y="-350" width="100" height="30" as="geometry" />
        </mxCell>
        <mxCell id="l2iuPfOXZToAjTSz2PRP-79" value="" style="rounded=0;whiteSpace=wrap;html=1;container=0;sketch=1;curveFitting=1;jiggle=2;fillColor=#dae8fc;strokeColor=none;" vertex="1" parent="l2iuPfOXZToAjTSz2PRP-78">
          <mxGeometry width="100" height="30" as="geometry" />
        </mxCell>
        <mxCell id="l2iuPfOXZToAjTSz2PRP-80" value="&lt;font style=&quot;font-size: 9px;&quot;&gt;Editar&amp;nbsp;&lt;/font&gt;&lt;span style=&quot;font-size: 9px;&quot;&gt;equipamento&lt;/span&gt;" style="text;html=1;align=center;verticalAlign=middle;whiteSpace=wrap;rounded=0;container=0;" vertex="1" parent="l2iuPfOXZToAjTSz2PRP-78">
          <mxGeometry width="99.04" height="30" as="geometry" />
        </mxCell>
        <mxCell id="l2iuPfOXZToAjTSz2PRP-61" value="" style="group;fillColor=#f5f5f5;fontColor=#333333;strokeColor=#666666;fontStyle=0" connectable="0" vertex="1" parent="1">
          <mxGeometry x="-568.75" y="-380" width="100" height="30" as="geometry" />
        </mxCell>
        <mxCell id="l2iuPfOXZToAjTSz2PRP-62" value="" style="rounded=0;whiteSpace=wrap;html=1;container=0;sketch=1;curveFitting=1;jiggle=2;fillColor=#dae8fc;strokeColor=none;" vertex="1" parent="l2iuPfOXZToAjTSz2PRP-61">
          <mxGeometry width="100" height="30" as="geometry" />
        </mxCell>
        <mxCell id="l2iuPfOXZToAjTSz2PRP-63" value="&lt;font style=&quot;font-size: 9px;&quot;&gt;Cadastrar equipamento&lt;/font&gt;" style="text;html=1;align=center;verticalAlign=middle;whiteSpace=wrap;rounded=0;container=0;" vertex="1" parent="l2iuPfOXZToAjTSz2PRP-61">
          <mxGeometry width="99.04" height="30" as="geometry" />
        </mxCell>
        <mxCell id="l2iuPfOXZToAjTSz2PRP-49" value="" style="group;fontStyle=0" connectable="0" vertex="1" parent="1">
          <mxGeometry x="-573.75" y="-320" width="104" height="30" as="geometry" />
        </mxCell>
        <mxCell id="l2iuPfOXZToAjTSz2PRP-50" value="" style="rounded=0;whiteSpace=wrap;html=1;sketch=1;curveFitting=1;jiggle=2;container=0;" vertex="1" parent="l2iuPfOXZToAjTSz2PRP-49">
          <mxGeometry x="4" width="100" height="30" as="geometry" />
        </mxCell>
        <mxCell id="l2iuPfOXZToAjTSz2PRP-51" value="Controle EPI" style="text;html=1;align=center;verticalAlign=middle;whiteSpace=wrap;rounded=0;container=0;" vertex="1" parent="l2iuPfOXZToAjTSz2PRP-49">
          <mxGeometry width="103" height="30" as="geometry" />
        </mxCell>
        <mxCell id="l2iuPfOXZToAjTSz2PRP-52" value="" style="group;fontStyle=0" connectable="0" vertex="1" parent="1">
          <mxGeometry x="-568.75" y="-290" width="100" height="30" as="geometry" />
        </mxCell>
        <mxCell id="l2iuPfOXZToAjTSz2PRP-53" value="" style="rounded=0;whiteSpace=wrap;html=1;sketch=1;curveFitting=1;jiggle=2;container=0;" vertex="1" parent="l2iuPfOXZToAjTSz2PRP-52">
          <mxGeometry width="100" height="30" as="geometry" />
        </mxCell>
        <mxCell id="l2iuPfOXZToAjTSz2PRP-54" value="Colaborador" style="text;html=1;align=center;verticalAlign=middle;whiteSpace=wrap;rounded=0;container=0;" vertex="1" parent="l2iuPfOXZToAjTSz2PRP-52">
          <mxGeometry width="99.04" height="30" as="geometry" />
        </mxCell>
        <mxCell id="l2iuPfOXZToAjTSz2PRP-121" value="" style="rounded=0;whiteSpace=wrap;html=1;fillColor=#f5f5f5;sketch=1;curveFitting=1;jiggle=2;fontColor=#333333;strokeColor=#666666;" vertex="1" parent="1">
          <mxGeometry x="-563.75" y="-20" width="580" height="360" as="geometry" />
        </mxCell>
        <mxCell id="l2iuPfOXZToAjTSz2PRP-122" value="" style="rounded=0;whiteSpace=wrap;html=1;fillColor=#7EA6E0;sketch=1;curveFitting=1;jiggle=2;strokeColor=#6c8ebf;" vertex="1" parent="1">
          <mxGeometry x="-563.75" y="-20" width="580" height="30" as="geometry" />
        </mxCell>
        <mxCell id="l2iuPfOXZToAjTSz2PRP-123" value="Home" style="html=1;shadow=0;dashed=0;shape=mxgraph.bootstrap.rrect;rSize=5;strokeColor=none;strokeWidth=1;fillColor=none;fontColor=#000000;whiteSpace=wrap;align=center;verticalAlign=middle;spacingLeft=0;fontStyle=1;fontSize=16;spacing=5;" vertex="1" parent="1">
          <mxGeometry x="-563.75" y="-20" width="100" height="30" as="geometry" />
        </mxCell>
        <mxCell id="l2iuPfOXZToAjTSz2PRP-134" value="" style="group" connectable="0" vertex="1" parent="1">
          <mxGeometry x="-83.75" y="-20" width="100" height="30" as="geometry" />
        </mxCell>
        <mxCell id="l2iuPfOXZToAjTSz2PRP-135" value="" style="rounded=0;whiteSpace=wrap;html=1;sketch=1;curveFitting=1;jiggle=2;fillColor=none;container=0;" vertex="1" parent="l2iuPfOXZToAjTSz2PRP-134">
          <mxGeometry width="100" height="30" as="geometry" />
        </mxCell>
        <mxCell id="l2iuPfOXZToAjTSz2PRP-136" value="" style="html=1;verticalLabelPosition=bottom;align=center;labelBackgroundColor=#ffffff;verticalAlign=top;strokeWidth=2;strokeColor=#0080F0;shadow=0;dashed=0;shape=mxgraph.ios7.icons.user;container=0;" vertex="1" parent="l2iuPfOXZToAjTSz2PRP-134">
          <mxGeometry x="70" y="5" width="20" height="20" as="geometry" />
        </mxCell>
        <mxCell id="l2iuPfOXZToAjTSz2PRP-137" value="nome" style="text;html=1;align=center;verticalAlign=middle;whiteSpace=wrap;rounded=0;container=0;" vertex="1" parent="l2iuPfOXZToAjTSz2PRP-134">
          <mxGeometry width="65" height="30" as="geometry" />
        </mxCell>
        <mxCell id="l2iuPfOXZToAjTSz2PRP-149" value="&lt;span style=&quot;color: rgb(153, 153, 153);&quot;&gt;Pesquisar pelo nome&lt;/span&gt;" style="rounded=1;whiteSpace=wrap;html=1;labelBackgroundColor=none;fontColor=default;sketch=1;curveFitting=1;jiggle=2;align=left;" vertex="1" parent="1">
          <mxGeometry x="-384.25" y="60" width="320" height="30" as="geometry" />
        </mxCell>
        <mxCell id="l2iuPfOXZToAjTSz2PRP-150" value="Pesquisar equipamento" style="text;html=1;align=center;verticalAlign=middle;whiteSpace=wrap;rounded=0;" vertex="1" parent="1">
          <mxGeometry x="-379.25" y="30" width="310" height="30" as="geometry" />
        </mxCell>
        <mxCell id="l2iuPfOXZToAjTSz2PRP-151" value="" style="shape=image;html=1;verticalAlign=top;verticalLabelPosition=bottom;labelBackgroundColor=default;imageAspect=0;aspect=fixed;image=https://cdn4.iconfinder.com/data/icons/essentials-71/24/002_-_Search-128.png;fontColor=#999999;labelBorderColor=none;sketch=1;curveFitting=1;jiggle=2;" vertex="1" parent="1">
          <mxGeometry x="-89.25" y="65" width="20" height="20" as="geometry" />
        </mxCell>
        <mxCell id="l2iuPfOXZToAjTSz2PRP-152" value="" style="rounded=0;whiteSpace=wrap;html=1;sketch=1;curveFitting=1;jiggle=2;fillColor=default;" vertex="1" parent="1">
          <mxGeometry x="-379.25" y="100" width="315" height="200" as="geometry" />
        </mxCell>
        <mxCell id="l2iuPfOXZToAjTSz2PRP-153" value="" style="shape=table;startSize=0;container=1;collapsible=0;childLayout=tableLayout;fontSize=16;sketch=1;curveFitting=1;jiggle=2;" vertex="1" parent="1">
          <mxGeometry x="-359.25" y="119" width="270" height="161" as="geometry" />
        </mxCell>
        <mxCell id="l2iuPfOXZToAjTSz2PRP-154" value="" style="shape=tableRow;horizontal=0;startSize=0;swimlaneHead=0;swimlaneBody=0;strokeColor=inherit;top=0;left=0;bottom=0;right=0;collapsible=0;dropTarget=0;fillColor=none;points=[[0,0.5],[1,0.5]];portConstraint=eastwest;fontSize=16;" vertex="1" parent="l2iuPfOXZToAjTSz2PRP-153">
          <mxGeometry width="270" height="21" as="geometry" />
        </mxCell>
        <mxCell id="l2iuPfOXZToAjTSz2PRP-155" value="campo" style="shape=partialRectangle;html=1;whiteSpace=wrap;connectable=0;strokeColor=inherit;overflow=hidden;fillColor=none;top=0;left=0;bottom=0;right=0;pointerEvents=1;fontSize=12;" vertex="1" parent="l2iuPfOXZToAjTSz2PRP-154">
          <mxGeometry width="80" height="21" as="geometry">
            <mxRectangle width="80" height="21" as="alternateBounds" />
          </mxGeometry>
        </mxCell>
        <mxCell id="l2iuPfOXZToAjTSz2PRP-156" value="cam&lt;span style=&quot;background-color: initial;&quot;&gt;po&lt;/span&gt;" style="shape=partialRectangle;html=1;whiteSpace=wrap;connectable=0;strokeColor=inherit;overflow=hidden;fillColor=none;top=0;left=0;bottom=0;right=0;pointerEvents=1;fontSize=12;" vertex="1" parent="l2iuPfOXZToAjTSz2PRP-154">
          <mxGeometry x="80" width="70" height="21" as="geometry">
            <mxRectangle width="70" height="21" as="alternateBounds" />
          </mxGeometry>
        </mxCell>
        <mxCell id="l2iuPfOXZToAjTSz2PRP-157" value="aÃ§Ã£o" style="shape=partialRectangle;html=1;whiteSpace=wrap;connectable=0;strokeColor=inherit;overflow=hidden;fillColor=none;top=0;left=0;bottom=0;right=0;pointerEvents=1;fontSize=12;" vertex="1" parent="l2iuPfOXZToAjTSz2PRP-154">
          <mxGeometry x="150" width="120" height="21" as="geometry">
            <mxRectangle width="120" height="21" as="alternateBounds" />
          </mxGeometry>
        </mxCell>
        <mxCell id="l2iuPfOXZToAjTSz2PRP-158" style="shape=tableRow;horizontal=0;startSize=0;swimlaneHead=0;swimlaneBody=0;strokeColor=inherit;top=0;left=0;bottom=0;right=0;collapsible=0;dropTarget=0;fillColor=none;points=[[0,0.5],[1,0.5]];portConstraint=eastwest;fontSize=16;" vertex="1" parent="l2iuPfOXZToAjTSz2PRP-153">
          <mxGeometry y="21" width="270" height="20" as="geometry" />
        </mxCell>
        <mxCell id="l2iuPfOXZToAjTSz2PRP-159" value="xx" style="shape=partialRectangle;html=1;whiteSpace=wrap;connectable=0;strokeColor=inherit;overflow=hidden;fillColor=none;top=0;left=0;bottom=0;right=0;pointerEvents=1;fontSize=12;" vertex="1" parent="l2iuPfOXZToAjTSz2PRP-158">
          <mxGeometry width="80" height="20" as="geometry">
            <mxRectangle width="80" height="20" as="alternateBounds" />
          </mxGeometry>
        </mxCell>
        <mxCell id="l2iuPfOXZToAjTSz2PRP-160" value="xx" style="shape=partialRectangle;html=1;whiteSpace=wrap;connectable=0;strokeColor=inherit;overflow=hidden;fillColor=none;top=0;left=0;bottom=0;right=0;pointerEvents=1;fontSize=12;" vertex="1" parent="l2iuPfOXZToAjTSz2PRP-158">
          <mxGeometry x="80" width="70" height="20" as="geometry">
            <mxRectangle width="70" height="20" as="alternateBounds" />
          </mxGeometry>
        </mxCell>
        <mxCell id="l2iuPfOXZToAjTSz2PRP-161" value="" style="shape=partialRectangle;html=1;whiteSpace=wrap;connectable=0;strokeColor=inherit;overflow=hidden;fillColor=none;top=0;left=0;bottom=0;right=0;pointerEvents=1;fontSize=12;" vertex="1" parent="l2iuPfOXZToAjTSz2PRP-158">
          <mxGeometry x="150" width="120" height="20" as="geometry">
            <mxRectangle width="120" height="20" as="alternateBounds" />
          </mxGeometry>
        </mxCell>
        <mxCell id="l2iuPfOXZToAjTSz2PRP-162" style="shape=tableRow;horizontal=0;startSize=0;swimlaneHead=0;swimlaneBody=0;strokeColor=inherit;top=0;left=0;bottom=0;right=0;collapsible=0;dropTarget=0;fillColor=none;points=[[0,0.5],[1,0.5]];portConstraint=eastwest;fontSize=16;" vertex="1" parent="l2iuPfOXZToAjTSz2PRP-153">
          <mxGeometry y="41" width="270" height="20" as="geometry" />
        </mxCell>
        <mxCell id="l2iuPfOXZToAjTSz2PRP-163" value="xx" style="shape=partialRectangle;html=1;whiteSpace=wrap;connectable=0;strokeColor=inherit;overflow=hidden;fillColor=none;top=0;left=0;bottom=0;right=0;pointerEvents=1;fontSize=12;" vertex="1" parent="l2iuPfOXZToAjTSz2PRP-162">
          <mxGeometry width="80" height="20" as="geometry">
            <mxRectangle width="80" height="20" as="alternateBounds" />
          </mxGeometry>
        </mxCell>
        <mxCell id="l2iuPfOXZToAjTSz2PRP-164" value="xx" style="shape=partialRectangle;html=1;whiteSpace=wrap;connectable=0;strokeColor=inherit;overflow=hidden;fillColor=none;top=0;left=0;bottom=0;right=0;pointerEvents=1;fontSize=12;" vertex="1" parent="l2iuPfOXZToAjTSz2PRP-162">
          <mxGeometry x="80" width="70" height="20" as="geometry">
            <mxRectangle width="70" height="20" as="alternateBounds" />
          </mxGeometry>
        </mxCell>
        <mxCell id="l2iuPfOXZToAjTSz2PRP-165" value="" style="shape=partialRectangle;html=1;whiteSpace=wrap;connectable=0;strokeColor=inherit;overflow=hidden;fillColor=none;top=0;left=0;bottom=0;right=0;pointerEvents=1;fontSize=12;" vertex="1" parent="l2iuPfOXZToAjTSz2PRP-162">
          <mxGeometry x="150" width="120" height="20" as="geometry">
            <mxRectangle width="120" height="20" as="alternateBounds" />
          </mxGeometry>
        </mxCell>
        <mxCell id="l2iuPfOXZToAjTSz2PRP-166" style="shape=tableRow;horizontal=0;startSize=0;swimlaneHead=0;swimlaneBody=0;strokeColor=inherit;top=0;left=0;bottom=0;right=0;collapsible=0;dropTarget=0;fillColor=none;points=[[0,0.5],[1,0.5]];portConstraint=eastwest;fontSize=16;" vertex="1" parent="l2iuPfOXZToAjTSz2PRP-153">
          <mxGeometry y="61" width="270" height="20" as="geometry" />
        </mxCell>
        <mxCell id="l2iuPfOXZToAjTSz2PRP-167" value="xx" style="shape=partialRectangle;html=1;whiteSpace=wrap;connectable=0;strokeColor=inherit;overflow=hidden;fillColor=none;top=0;left=0;bottom=0;right=0;pointerEvents=1;fontSize=12;" vertex="1" parent="l2iuPfOXZToAjTSz2PRP-166">
          <mxGeometry width="80" height="20" as="geometry">
            <mxRectangle width="80" height="20" as="alternateBounds" />
          </mxGeometry>
        </mxCell>
        <mxCell id="l2iuPfOXZToAjTSz2PRP-168" value="xx" style="shape=partialRectangle;html=1;whiteSpace=wrap;connectable=0;strokeColor=inherit;overflow=hidden;fillColor=none;top=0;left=0;bottom=0;right=0;pointerEvents=1;fontSize=12;" vertex="1" parent="l2iuPfOXZToAjTSz2PRP-166">
          <mxGeometry x="80" width="70" height="20" as="geometry">
            <mxRectangle width="70" height="20" as="alternateBounds" />
          </mxGeometry>
        </mxCell>
        <mxCell id="l2iuPfOXZToAjTSz2PRP-169" value="" style="shape=partialRectangle;html=1;whiteSpace=wrap;connectable=0;strokeColor=inherit;overflow=hidden;fillColor=none;top=0;left=0;bottom=0;right=0;pointerEvents=1;fontSize=12;" vertex="1" parent="l2iuPfOXZToAjTSz2PRP-166">
          <mxGeometry x="150" width="120" height="20" as="geometry">
            <mxRectangle width="120" height="20" as="alternateBounds" />
          </mxGeometry>
        </mxCell>
        <mxCell id="l2iuPfOXZToAjTSz2PRP-170" style="shape=tableRow;horizontal=0;startSize=0;swimlaneHead=0;swimlaneBody=0;strokeColor=inherit;top=0;left=0;bottom=0;right=0;collapsible=0;dropTarget=0;fillColor=none;points=[[0,0.5],[1,0.5]];portConstraint=eastwest;fontSize=16;" vertex="1" parent="l2iuPfOXZToAjTSz2PRP-153">
          <mxGeometry y="81" width="270" height="20" as="geometry" />
        </mxCell>
        <mxCell id="l2iuPfOXZToAjTSz2PRP-171" value="xx" style="shape=partialRectangle;html=1;whiteSpace=wrap;connectable=0;strokeColor=inherit;overflow=hidden;fillColor=none;top=0;left=0;bottom=0;right=0;pointerEvents=1;fontSize=12;" vertex="1" parent="l2iuPfOXZToAjTSz2PRP-170">
          <mxGeometry width="80" height="20" as="geometry">
            <mxRectangle width="80" height="20" as="alternateBounds" />
          </mxGeometry>
        </mxCell>
        <mxCell id="l2iuPfOXZToAjTSz2PRP-172" value="xx" style="shape=partialRectangle;html=1;whiteSpace=wrap;connectable=0;strokeColor=inherit;overflow=hidden;fillColor=none;top=0;left=0;bottom=0;right=0;pointerEvents=1;fontSize=12;" vertex="1" parent="l2iuPfOXZToAjTSz2PRP-170">
          <mxGeometry x="80" width="70" height="20" as="geometry">
            <mxRectangle width="70" height="20" as="alternateBounds" />
          </mxGeometry>
        </mxCell>
        <mxCell id="l2iuPfOXZToAjTSz2PRP-173" value="" style="shape=partialRectangle;html=1;whiteSpace=wrap;connectable=0;strokeColor=inherit;overflow=hidden;fillColor=none;top=0;left=0;bottom=0;right=0;pointerEvents=1;fontSize=12;" vertex="1" parent="l2iuPfOXZToAjTSz2PRP-170">
          <mxGeometry x="150" width="120" height="20" as="geometry">
            <mxRectangle width="120" height="20" as="alternateBounds" />
          </mxGeometry>
        </mxCell>
        <mxCell id="l2iuPfOXZToAjTSz2PRP-174" style="shape=tableRow;horizontal=0;startSize=0;swimlaneHead=0;swimlaneBody=0;strokeColor=inherit;top=0;left=0;bottom=0;right=0;collapsible=0;dropTarget=0;fillColor=none;points=[[0,0.5],[1,0.5]];portConstraint=eastwest;fontSize=16;" vertex="1" parent="l2iuPfOXZToAjTSz2PRP-153">
          <mxGeometry y="101" width="270" height="20" as="geometry" />
        </mxCell>
        <mxCell id="l2iuPfOXZToAjTSz2PRP-175" value="xx" style="shape=partialRectangle;html=1;whiteSpace=wrap;connectable=0;strokeColor=inherit;overflow=hidden;fillColor=none;top=0;left=0;bottom=0;right=0;pointerEvents=1;fontSize=12;" vertex="1" parent="l2iuPfOXZToAjTSz2PRP-174">
          <mxGeometry width="80" height="20" as="geometry">
            <mxRectangle width="80" height="20" as="alternateBounds" />
          </mxGeometry>
        </mxCell>
        <mxCell id="l2iuPfOXZToAjTSz2PRP-176" value="xx" style="shape=partialRectangle;html=1;whiteSpace=wrap;connectable=0;strokeColor=inherit;overflow=hidden;fillColor=none;top=0;left=0;bottom=0;right=0;pointerEvents=1;fontSize=12;" vertex="1" parent="l2iuPfOXZToAjTSz2PRP-174">
          <mxGeometry x="80" width="70" height="20" as="geometry">
            <mxRectangle width="70" height="20" as="alternateBounds" />
          </mxGeometry>
        </mxCell>
        <mxCell id="l2iuPfOXZToAjTSz2PRP-177" value="" style="shape=partialRectangle;html=1;whiteSpace=wrap;connectable=0;strokeColor=inherit;overflow=hidden;fillColor=none;top=0;left=0;bottom=0;right=0;pointerEvents=1;fontSize=12;" vertex="1" parent="l2iuPfOXZToAjTSz2PRP-174">
          <mxGeometry x="150" width="120" height="20" as="geometry">
            <mxRectangle width="120" height="20" as="alternateBounds" />
          </mxGeometry>
        </mxCell>
        <mxCell id="l2iuPfOXZToAjTSz2PRP-178" style="shape=tableRow;horizontal=0;startSize=0;swimlaneHead=0;swimlaneBody=0;strokeColor=inherit;top=0;left=0;bottom=0;right=0;collapsible=0;dropTarget=0;fillColor=none;points=[[0,0.5],[1,0.5]];portConstraint=eastwest;fontSize=16;" vertex="1" parent="l2iuPfOXZToAjTSz2PRP-153">
          <mxGeometry y="121" width="270" height="20" as="geometry" />
        </mxCell>
        <mxCell id="l2iuPfOXZToAjTSz2PRP-179" value="xx" style="shape=partialRectangle;html=1;whiteSpace=wrap;connectable=0;strokeColor=inherit;overflow=hidden;fillColor=none;top=0;left=0;bottom=0;right=0;pointerEvents=1;fontSize=12;" vertex="1" parent="l2iuPfOXZToAjTSz2PRP-178">
          <mxGeometry width="80" height="20" as="geometry">
            <mxRectangle width="80" height="20" as="alternateBounds" />
          </mxGeometry>
        </mxCell>
        <mxCell id="l2iuPfOXZToAjTSz2PRP-180" value="xx" style="shape=partialRectangle;html=1;whiteSpace=wrap;connectable=0;strokeColor=inherit;overflow=hidden;fillColor=none;top=0;left=0;bottom=0;right=0;pointerEvents=1;fontSize=12;" vertex="1" parent="l2iuPfOXZToAjTSz2PRP-178">
          <mxGeometry x="80" width="70" height="20" as="geometry">
            <mxRectangle width="70" height="20" as="alternateBounds" />
          </mxGeometry>
        </mxCell>
        <mxCell id="l2iuPfOXZToAjTSz2PRP-181" value="" style="shape=partialRectangle;html=1;whiteSpace=wrap;connectable=0;strokeColor=inherit;overflow=hidden;fillColor=none;top=0;left=0;bottom=0;right=0;pointerEvents=1;fontSize=12;" vertex="1" parent="l2iuPfOXZToAjTSz2PRP-178">
          <mxGeometry x="150" width="120" height="20" as="geometry">
            <mxRectangle width="120" height="20" as="alternateBounds" />
          </mxGeometry>
        </mxCell>
        <mxCell id="l2iuPfOXZToAjTSz2PRP-182" value="" style="shape=tableRow;horizontal=0;startSize=0;swimlaneHead=0;swimlaneBody=0;strokeColor=inherit;top=0;left=0;bottom=0;right=0;collapsible=0;dropTarget=0;fillColor=none;points=[[0,0.5],[1,0.5]];portConstraint=eastwest;fontSize=16;" vertex="1" parent="l2iuPfOXZToAjTSz2PRP-153">
          <mxGeometry y="141" width="270" height="20" as="geometry" />
        </mxCell>
        <mxCell id="l2iuPfOXZToAjTSz2PRP-183" value="xx" style="shape=partialRectangle;html=1;whiteSpace=wrap;connectable=0;strokeColor=inherit;overflow=hidden;fillColor=none;top=0;left=0;bottom=0;right=0;pointerEvents=1;fontSize=12;" vertex="1" parent="l2iuPfOXZToAjTSz2PRP-182">
          <mxGeometry width="80" height="20" as="geometry">
            <mxRectangle width="80" height="20" as="alternateBounds" />
          </mxGeometry>
        </mxCell>
        <mxCell id="l2iuPfOXZToAjTSz2PRP-184" value="xx" style="shape=partialRectangle;html=1;whiteSpace=wrap;connectable=0;strokeColor=inherit;overflow=hidden;fillColor=none;top=0;left=0;bottom=0;right=0;pointerEvents=1;fontSize=12;" vertex="1" parent="l2iuPfOXZToAjTSz2PRP-182">
          <mxGeometry x="80" width="70" height="20" as="geometry">
            <mxRectangle width="70" height="20" as="alternateBounds" />
          </mxGeometry>
        </mxCell>
        <mxCell id="l2iuPfOXZToAjTSz2PRP-185" value="" style="shape=partialRectangle;html=1;whiteSpace=wrap;connectable=0;strokeColor=inherit;overflow=hidden;fillColor=none;top=0;left=0;bottom=0;right=0;pointerEvents=1;fontSize=12;" vertex="1" parent="l2iuPfOXZToAjTSz2PRP-182">
          <mxGeometry x="150" width="120" height="20" as="geometry">
            <mxRectangle width="120" height="20" as="alternateBounds" />
          </mxGeometry>
        </mxCell>
        <mxCell id="l2iuPfOXZToAjTSz2PRP-187" value="" style="rounded=0;whiteSpace=wrap;html=1;sketch=1;curveFitting=1;jiggle=2;fillColor=default;" vertex="1" parent="1">
          <mxGeometry x="30.75" y="119.5" width="315" height="200" as="geometry" />
        </mxCell>
        <mxCell id="l2iuPfOXZToAjTSz2PRP-188" value="Desculpe, mas nÃ£o encontramos dados correspondentes Ã  sua busca &lt;br&gt;:(" style="text;html=1;align=center;verticalAlign=middle;whiteSpace=wrap;rounded=0;" vertex="1" parent="1">
          <mxGeometry x="40.75" y="139.5" width="300" height="40" as="geometry" />
        </mxCell>
        <mxCell id="l2iuPfOXZToAjTSz2PRP-189" value="Quando nÃ£o tiver dados no banco ou nÃ£o for encontrado informaÃ§Ã£o na pesquisa. Exibir a mensagem abaixo" style="text;html=1;align=center;verticalAlign=middle;whiteSpace=wrap;rounded=0;" vertex="1" parent="1">
          <mxGeometry x="40.75" y="65" width="290" height="40" as="geometry" />
        </mxCell>
        <mxCell id="l2iuPfOXZToAjTSz2PRP-190" value="Editar" style="rounded=1;whiteSpace=wrap;html=1;sketch=1;curveFitting=1;jiggle=2;fillColor=#ffe6cc;strokeColor=#d79b00;" vertex="1" parent="1">
          <mxGeometry x="-138.75" y="260" width="41" height="20" as="geometry" />
        </mxCell>
        <mxCell id="l2iuPfOXZToAjTSz2PRP-191" value="Deletar" style="rounded=1;whiteSpace=wrap;html=1;sketch=1;curveFitting=1;jiggle=2;fillColor=#f8cecc;strokeColor=#b85450;" vertex="1" parent="1">
          <mxGeometry x="-198.75" y="260" width="51" height="20" as="geometry" />
        </mxCell>
        <mxCell id="l2iuPfOXZToAjTSz2PRP-192" value="Editar" style="rounded=1;whiteSpace=wrap;html=1;sketch=1;curveFitting=1;jiggle=2;fillColor=#ffe6cc;strokeColor=#d79b00;" vertex="1" parent="1">
          <mxGeometry x="-138.75" y="240" width="41" height="20" as="geometry" />
        </mxCell>
        <mxCell id="l2iuPfOXZToAjTSz2PRP-193" value="Deletar" style="rounded=1;whiteSpace=wrap;html=1;sketch=1;curveFitting=1;jiggle=2;fillColor=#f8cecc;strokeColor=#b85450;" vertex="1" parent="1">
          <mxGeometry x="-198.75" y="240" width="51" height="20" as="geometry" />
        </mxCell>
        <mxCell id="l2iuPfOXZToAjTSz2PRP-194" value="Editar" style="rounded=1;whiteSpace=wrap;html=1;sketch=1;curveFitting=1;jiggle=2;fillColor=#ffe6cc;strokeColor=#d79b00;" vertex="1" parent="1">
          <mxGeometry x="-138.75" y="220" width="41" height="20" as="geometry" />
        </mxCell>
        <mxCell id="l2iuPfOXZToAjTSz2PRP-195" value="Deletar" style="rounded=1;whiteSpace=wrap;html=1;sketch=1;curveFitting=1;jiggle=2;fillColor=#f8cecc;strokeColor=#b85450;" vertex="1" parent="1">
          <mxGeometry x="-198.75" y="220" width="51" height="20" as="geometry" />
        </mxCell>
        <mxCell id="l2iuPfOXZToAjTSz2PRP-196" value="Editar" style="rounded=1;whiteSpace=wrap;html=1;sketch=1;curveFitting=1;jiggle=2;fillColor=#ffe6cc;strokeColor=#d79b00;" vertex="1" parent="1">
          <mxGeometry x="-138.75" y="200" width="41" height="20" as="geometry" />
        </mxCell>
        <mxCell id="l2iuPfOXZToAjTSz2PRP-197" value="Deletar" style="rounded=1;whiteSpace=wrap;html=1;sketch=1;curveFitting=1;jiggle=2;fillColor=#f8cecc;strokeColor=#b85450;" vertex="1" parent="1">
          <mxGeometry x="-198.75" y="200" width="51" height="20" as="geometry" />
        </mxCell>
        <mxCell id="l2iuPfOXZToAjTSz2PRP-198" value="Editar" style="rounded=1;whiteSpace=wrap;html=1;sketch=1;curveFitting=1;jiggle=2;fillColor=#ffe6cc;strokeColor=#d79b00;" vertex="1" parent="1">
          <mxGeometry x="-138.75" y="180" width="41" height="20" as="geometry" />
        </mxCell>
        <mxCell id="l2iuPfOXZToAjTSz2PRP-199" value="Deletar" style="rounded=1;whiteSpace=wrap;html=1;sketch=1;curveFitting=1;jiggle=2;fillColor=#f8cecc;strokeColor=#b85450;" vertex="1" parent="1">
          <mxGeometry x="-198.75" y="180" width="51" height="20" as="geometry" />
        </mxCell>
        <mxCell id="l2iuPfOXZToAjTSz2PRP-200" value="Editar" style="rounded=1;whiteSpace=wrap;html=1;sketch=1;curveFitting=1;jiggle=2;fillColor=#ffe6cc;strokeColor=#d79b00;" vertex="1" parent="1">
          <mxGeometry x="-138.75" y="160" width="41" height="20" as="geometry" />
        </mxCell>
        <mxCell id="l2iuPfOXZToAjTSz2PRP-201" value="Deletar" style="rounded=1;whiteSpace=wrap;html=1;sketch=1;curveFitting=1;jiggle=2;fillColor=#f8cecc;strokeColor=#b85450;" vertex="1" parent="1">
          <mxGeometry x="-198.75" y="160" width="51" height="20" as="geometry" />
        </mxCell>
        <mxCell id="l2iuPfOXZToAjTSz2PRP-202" value="Editar" style="rounded=1;whiteSpace=wrap;html=1;sketch=1;curveFitting=1;jiggle=2;fillColor=#ffe6cc;strokeColor=#d79b00;" vertex="1" parent="1">
          <mxGeometry x="-138.75" y="139" width="41" height="20" as="geometry" />
        </mxCell>
        <mxCell id="l2iuPfOXZToAjTSz2PRP-203" value="Deletar" style="rounded=1;whiteSpace=wrap;html=1;sketch=1;curveFitting=1;jiggle=2;fillColor=#f8cecc;strokeColor=#b85450;" vertex="1" parent="1">
          <mxGeometry x="-198.75" y="139" width="51" height="20" as="geometry" />
        </mxCell>
        <mxCell id="l2iuPfOXZToAjTSz2PRP-204" value="" style="rounded=1;whiteSpace=wrap;html=1;labelBackgroundColor=none;fontColor=default;sketch=1;curveFitting=1;jiggle=2;" vertex="1" parent="1">
          <mxGeometry x="-69.25" y="450" width="320" height="230" as="geometry" />
        </mxCell>
        <mxCell id="l2iuPfOXZToAjTSz2PRP-205" value="SALVAR" style="rounded=1;whiteSpace=wrap;html=1;fillColor=#d5e8d4;strokeColor=#82b366;sketch=1;curveFitting=1;jiggle=2;" vertex="1" parent="1">
          <mxGeometry x="-49.25" y="640" width="280" height="25" as="geometry" />
        </mxCell>
        <mxCell id="l2iuPfOXZToAjTSz2PRP-206" value="" style="group" connectable="0" vertex="1" parent="1">
          <mxGeometry x="-49.25" y="475" width="280" height="55" as="geometry" />
        </mxCell>
        <mxCell id="l2iuPfOXZToAjTSz2PRP-207" value="xxxxxx" style="text;html=1;align=left;verticalAlign=middle;whiteSpace=wrap;rounded=0;" vertex="1" parent="l2iuPfOXZToAjTSz2PRP-206">
          <mxGeometry width="280" height="30" as="geometry" />
        </mxCell>
        <mxCell id="l2iuPfOXZToAjTSz2PRP-208" value="" style="rounded=1;whiteSpace=wrap;html=1;" vertex="1" parent="l2iuPfOXZToAjTSz2PRP-206">
          <mxGeometry y="30" width="280" height="25" as="geometry" />
        </mxCell>
        <mxCell id="l2iuPfOXZToAjTSz2PRP-209" value="" style="group" connectable="0" vertex="1" parent="1">
          <mxGeometry x="-49.25" y="540" width="280" height="55" as="geometry" />
        </mxCell>
        <mxCell id="l2iuPfOXZToAjTSz2PRP-210" value="xxxxxx" style="text;html=1;align=left;verticalAlign=middle;whiteSpace=wrap;rounded=0;" vertex="1" parent="l2iuPfOXZToAjTSz2PRP-209">
          <mxGeometry width="280" height="30" as="geometry" />
        </mxCell>
        <mxCell id="l2iuPfOXZToAjTSz2PRP-211" value="" style="rounded=1;whiteSpace=wrap;html=1;" vertex="1" parent="l2iuPfOXZToAjTSz2PRP-209">
          <mxGeometry y="30" width="280" height="25" as="geometry" />
        </mxCell>
        <mxCell id="l2iuPfOXZToAjTSz2PRP-212" value="" style="curved=1;endArrow=classic;html=1;rounded=0;exitX=0.5;exitY=1;exitDx=0;exitDy=0;flowAnimation=0;entryX=0.37;entryY=-0.009;entryDx=0;entryDy=0;entryPerimeter=0;" edge="1" parent="1" source="l2iuPfOXZToAjTSz2PRP-190" target="l2iuPfOXZToAjTSz2PRP-204">
          <mxGeometry width="50" height="50" relative="1" as="geometry">
            <mxPoint x="-198.75" y="360" as="sourcePoint" />
            <mxPoint x="41.25" y="440" as="targetPoint" />
            <Array as="points">
              <mxPoint x="-138.75" y="360" />
              <mxPoint x="-78.75" y="410" />
              <mxPoint x="11.25" y="380" />
            </Array>
          </mxGeometry>
        </mxCell>
        <mxCell id="l2iuPfOXZToAjTSz2PRP-213" value="Ao clicar no botÃ£o de editar deve aparecer a tela de editar que deve conter os mesmos elementos da tela de cadastrar. PorÃ©m ao editar deve mostrar os valores dos equipamentos nos campos" style="text;html=1;align=center;verticalAlign=middle;whiteSpace=wrap;rounded=0;" vertex="1" parent="1">
          <mxGeometry x="-48.75" y="690" width="290" height="40" as="geometry" />
        </mxCell>
        <mxCell id="l2iuPfOXZToAjTSz2PRP-214" value="" style="rounded=1;whiteSpace=wrap;html=1;sketch=1;curveFitting=1;jiggle=2;" vertex="1" parent="1">
          <mxGeometry x="-469.75" y="450" width="281" height="150" as="geometry" />
        </mxCell>
        <mxCell id="l2iuPfOXZToAjTSz2PRP-215" value="&lt;h1 style=&quot;margin-top: 0px;&quot;&gt;&lt;font style=&quot;font-size: 18px;&quot;&gt;Remover equipamento&lt;/font&gt;&lt;/h1&gt;&lt;h1 style=&quot;margin-top: 0px;&quot;&gt;&lt;span style=&quot;background-color: initial;&quot;&gt;&lt;span style=&quot;font-size: 12px; font-weight: normal;&quot;&gt;VocÃª quer remover esse &lt;/span&gt;&lt;span style=&quot;font-size: 12px; font-weight: 400;&quot;&gt;equipamento&lt;/span&gt;&lt;span style=&quot;font-size: 12px; font-weight: normal;&quot;&gt;?&amp;nbsp;&lt;/span&gt;&lt;/span&gt;&lt;/h1&gt;" style="text;html=1;whiteSpace=wrap;overflow=hidden;rounded=0;align=center;" vertex="1" parent="1">
          <mxGeometry x="-468.75" y="450" width="280" height="110" as="geometry" />
        </mxCell>
        <mxCell id="l2iuPfOXZToAjTSz2PRP-216" value="Remover!" style="rounded=1;whiteSpace=wrap;html=1;fillColor=#f8cecc;strokeColor=#b85450;sketch=1;curveFitting=1;jiggle=2;" vertex="1" parent="1">
          <mxGeometry x="-313.75" y="560" width="80" height="30" as="geometry" />
        </mxCell>
        <mxCell id="l2iuPfOXZToAjTSz2PRP-217" value="Cancelar" style="rounded=1;whiteSpace=wrap;html=1;fillColor=#f5f5f5;fontColor=#333333;strokeColor=#666666;sketch=1;curveFitting=1;jiggle=2;" vertex="1" parent="1">
          <mxGeometry x="-418.75" y="560" width="80" height="30" as="geometry" />
        </mxCell>
        <mxCell id="l2iuPfOXZToAjTSz2PRP-218" value="" style="curved=1;endArrow=classic;html=1;rounded=0;exitX=0.577;exitY=1.029;exitDx=0;exitDy=0;exitPerimeter=0;entryX=0.482;entryY=0.013;entryDx=0;entryDy=0;entryPerimeter=0;" edge="1" parent="1" source="l2iuPfOXZToAjTSz2PRP-191" target="l2iuPfOXZToAjTSz2PRP-215">
          <mxGeometry width="50" height="50" relative="1" as="geometry">
            <mxPoint x="-308.75" y="380" as="sourcePoint" />
            <mxPoint x="-48.75" y="420" as="targetPoint" />
            <Array as="points">
              <mxPoint x="-158.75" y="420" />
              <mxPoint x="-308.75" y="340" />
            </Array>
          </mxGeometry>
        </mxCell>
        <mxCell id="l2iuPfOXZToAjTSz2PRP-219" value="Ao clicar no botÃ£o de remover deve aparecer um model/alert para realizar a confirmaÃ§Ã£o" style="text;html=1;align=center;verticalAlign=middle;whiteSpace=wrap;rounded=0;" vertex="1" parent="1">
          <mxGeometry x="-469.75" y="620" width="281" height="40" as="geometry" />
        </mxCell>
        <mxCell id="l2iuPfOXZToAjTSz2PRP-86" value="" style="rounded=0;whiteSpace=wrap;html=1;fillColor=#dae8fc;sketch=1;curveFitting=1;jiggle=2;strokeColor=#6c8ebf;" vertex="1" parent="1">
          <mxGeometry x="-558.75" y="10" width="100" height="330" as="geometry" />
        </mxCell>
        <mxCell id="l2iuPfOXZToAjTSz2PRP-87" value="" style="group;fontStyle=0" connectable="0" vertex="1" parent="1">
          <mxGeometry x="-563.75" y="10" width="104" height="40" as="geometry" />
        </mxCell>
        <mxCell id="l2iuPfOXZToAjTSz2PRP-88" value="" style="rounded=0;whiteSpace=wrap;html=1;sketch=1;curveFitting=1;jiggle=2;container=0;" vertex="1" parent="l2iuPfOXZToAjTSz2PRP-87">
          <mxGeometry x="4" width="100" height="30" as="geometry" />
        </mxCell>
        <mxCell id="l2iuPfOXZToAjTSz2PRP-89" value="Equipamento" style="text;html=1;align=center;verticalAlign=middle;whiteSpace=wrap;rounded=0;container=0;" vertex="1" parent="l2iuPfOXZToAjTSz2PRP-87">
          <mxGeometry width="103" height="30" as="geometry" />
        </mxCell>
        <mxCell id="l2iuPfOXZToAjTSz2PRP-94" value="" style="verticalLabelPosition=bottom;verticalAlign=top;html=1;shape=mxgraph.flowchart.collate;sketch=1;curveFitting=1;jiggle=2;fillColor=none;" vertex="1" parent="1">
          <mxGeometry x="-558.75" y="160" width="100" height="180" as="geometry" />
        </mxCell>
        <mxCell id="l2iuPfOXZToAjTSz2PRP-95" value="" style="rounded=0;whiteSpace=wrap;html=1;glass=0;sketch=1;curveFitting=1;jiggle=2;" vertex="1" parent="1">
          <mxGeometry x="-559.25" y="40" width="100" height="120" as="geometry" />
        </mxCell>
        <mxCell id="l2iuPfOXZToAjTSz2PRP-109" value="" style="group;fillColor=#f5f5f5;fontColor=#333333;strokeColor=#666666;fontStyle=0" connectable="0" vertex="1" parent="1">
          <mxGeometry x="-558.75" y="70" width="100" height="30" as="geometry" />
        </mxCell>
        <mxCell id="l2iuPfOXZToAjTSz2PRP-110" value="" style="rounded=0;whiteSpace=wrap;html=1;container=0;sketch=1;curveFitting=1;jiggle=2;fillColor=#dae8fc;strokeColor=none;" vertex="1" parent="l2iuPfOXZToAjTSz2PRP-109">
          <mxGeometry width="100" height="30" as="geometry" />
        </mxCell>
        <mxCell id="l2iuPfOXZToAjTSz2PRP-111" value="&lt;font style=&quot;font-size: 9px;&quot;&gt;Editar&amp;nbsp;&lt;/font&gt;&lt;span style=&quot;font-size: 9px;&quot;&gt;equipamento&lt;/span&gt;" style="text;html=1;align=center;verticalAlign=middle;whiteSpace=wrap;rounded=0;container=0;" vertex="1" parent="l2iuPfOXZToAjTSz2PRP-109">
          <mxGeometry width="99.04" height="30" as="geometry" />
        </mxCell>
        <mxCell id="l2iuPfOXZToAjTSz2PRP-112" value="" style="group;fillColor=#f5f5f5;fontColor=#333333;strokeColor=#666666;fontStyle=0" connectable="0" vertex="1" parent="1">
          <mxGeometry x="-558.75" y="40" width="100" height="30" as="geometry" />
        </mxCell>
        <mxCell id="l2iuPfOXZToAjTSz2PRP-113" value="" style="rounded=0;whiteSpace=wrap;html=1;container=0;sketch=1;curveFitting=1;jiggle=2;fillColor=#dae8fc;strokeColor=none;" vertex="1" parent="l2iuPfOXZToAjTSz2PRP-112">
          <mxGeometry width="100" height="30" as="geometry" />
        </mxCell>
        <mxCell id="l2iuPfOXZToAjTSz2PRP-114" value="&lt;font style=&quot;font-size: 9px;&quot;&gt;Cadastrar equipamento&lt;/font&gt;" style="text;html=1;align=center;verticalAlign=middle;whiteSpace=wrap;rounded=0;container=0;" vertex="1" parent="l2iuPfOXZToAjTSz2PRP-112">
          <mxGeometry width="99.04" height="30" as="geometry" />
        </mxCell>
        <mxCell id="l2iuPfOXZToAjTSz2PRP-115" value="" style="group;fontStyle=0" connectable="0" vertex="1" parent="1">
          <mxGeometry x="-563.75" y="100" width="104" height="30" as="geometry" />
        </mxCell>
        <mxCell id="l2iuPfOXZToAjTSz2PRP-116" value="" style="rounded=0;whiteSpace=wrap;html=1;sketch=1;curveFitting=1;jiggle=2;container=0;" vertex="1" parent="l2iuPfOXZToAjTSz2PRP-115">
          <mxGeometry x="4" width="100" height="30" as="geometry" />
        </mxCell>
        <mxCell id="l2iuPfOXZToAjTSz2PRP-117" value="Controle EPI" style="text;html=1;align=center;verticalAlign=middle;whiteSpace=wrap;rounded=0;container=0;" vertex="1" parent="l2iuPfOXZToAjTSz2PRP-115">
          <mxGeometry width="103" height="30" as="geometry" />
        </mxCell>
        <mxCell id="l2iuPfOXZToAjTSz2PRP-118" value="" style="group;fontStyle=0" connectable="0" vertex="1" parent="1">
          <mxGeometry x="-558.75" y="130" width="100" height="30" as="geometry" />
        </mxCell>
        <mxCell id="l2iuPfOXZToAjTSz2PRP-119" value="" style="rounded=0;whiteSpace=wrap;html=1;sketch=1;curveFitting=1;jiggle=2;container=0;" vertex="1" parent="l2iuPfOXZToAjTSz2PRP-118">
          <mxGeometry width="100" height="30" as="geometry" />
        </mxCell>
        <mxCell id="l2iuPfOXZToAjTSz2PRP-120" value="Colaborador" style="text;html=1;align=center;verticalAlign=middle;whiteSpace=wrap;rounded=0;container=0;" vertex="1" parent="l2iuPfOXZToAjTSz2PRP-118">
          <mxGeometry width="99.04" height="30" as="geometry" />
        </mxCell>
        <mxCell id="l2iuPfOXZToAjTSz2PRP-220" value="" style="curved=1;endArrow=classic;html=1;rounded=0;exitX=-0.001;exitY=0.412;exitDx=0;exitDy=0;exitPerimeter=0;entryX=1;entryY=0.5;entryDx=0;entryDy=0;" edge="1" parent="1" target="l2iuPfOXZToAjTSz2PRP-110">
          <mxGeometry width="50" height="50" relative="1" as="geometry">
            <mxPoint x="-379.75" y="200" as="sourcePoint" />
            <mxPoint x="-459.75" y="60" as="targetPoint" />
            <Array as="points">
              <mxPoint x="-429.25" y="200" />
              <mxPoint x="-453.75" y="155" />
              <mxPoint x="-393.75" y="140" />
              <mxPoint x="-403.75" y="100" />
            </Array>
          </mxGeometry>
        </mxCell>
        <mxCell id="l2iuPfOXZToAjTSz2PRP-356" value="" style="rounded=0;whiteSpace=wrap;html=1;fillColor=#f5f5f5;sketch=1;curveFitting=1;jiggle=2;fontColor=#333333;strokeColor=#666666;" vertex="1" parent="1">
          <mxGeometry x="-1635" y="-432.75" width="580" height="485.5" as="geometry" />
        </mxCell>
        <mxCell id="l2iuPfOXZToAjTSz2PRP-357" value="" style="rounded=0;whiteSpace=wrap;html=1;fillColor=#7EA6E0;sketch=1;curveFitting=1;jiggle=2;strokeColor=#6c8ebf;" vertex="1" parent="1">
          <mxGeometry x="-1635" y="-432.75" width="580" height="30" as="geometry" />
        </mxCell>
        <mxCell id="l2iuPfOXZToAjTSz2PRP-358" value="Home" style="html=1;shadow=0;dashed=0;shape=mxgraph.bootstrap.rrect;rSize=5;strokeColor=none;strokeWidth=1;fillColor=none;fontColor=#000000;whiteSpace=wrap;align=center;verticalAlign=middle;spacingLeft=0;fontStyle=1;fontSize=16;spacing=5;" vertex="1" parent="1">
          <mxGeometry x="-1635" y="-432.75" width="100" height="30" as="geometry" />
        </mxCell>
        <mxCell id="l2iuPfOXZToAjTSz2PRP-359" value="" style="rounded=0;whiteSpace=wrap;html=1;fillColor=#dae8fc;sketch=1;curveFitting=1;jiggle=2;strokeColor=#6c8ebf;" vertex="1" parent="1">
          <mxGeometry x="-1635" y="-402.75" width="100" height="455.5" as="geometry" />
        </mxCell>
        <mxCell id="l2iuPfOXZToAjTSz2PRP-360" value="" style="group;fontStyle=0" connectable="0" vertex="1" parent="1">
          <mxGeometry x="-1640" y="-402.75" width="104" height="40" as="geometry" />
        </mxCell>
        <mxCell id="l2iuPfOXZToAjTSz2PRP-361" value="" style="rounded=0;whiteSpace=wrap;html=1;sketch=1;curveFitting=1;jiggle=2;container=0;" vertex="1" parent="l2iuPfOXZToAjTSz2PRP-360">
          <mxGeometry x="4" width="100" height="30" as="geometry" />
        </mxCell>
        <mxCell id="l2iuPfOXZToAjTSz2PRP-362" value="Equipamento" style="text;html=1;align=center;verticalAlign=middle;whiteSpace=wrap;rounded=0;container=0;" vertex="1" parent="l2iuPfOXZToAjTSz2PRP-360">
          <mxGeometry width="103" height="30" as="geometry" />
        </mxCell>
        <mxCell id="l2iuPfOXZToAjTSz2PRP-363" value="" style="group" connectable="0" vertex="1" parent="1">
          <mxGeometry x="-1155" y="-432.75" width="100" height="30" as="geometry" />
        </mxCell>
        <mxCell id="l2iuPfOXZToAjTSz2PRP-364" value="" style="rounded=0;whiteSpace=wrap;html=1;sketch=1;curveFitting=1;jiggle=2;fillColor=none;container=0;" vertex="1" parent="l2iuPfOXZToAjTSz2PRP-363">
          <mxGeometry width="100" height="30" as="geometry" />
        </mxCell>
        <mxCell id="l2iuPfOXZToAjTSz2PRP-365" value="" style="html=1;verticalLabelPosition=bottom;align=center;labelBackgroundColor=#ffffff;verticalAlign=top;strokeWidth=2;strokeColor=#0080F0;shadow=0;dashed=0;shape=mxgraph.ios7.icons.user;container=0;" vertex="1" parent="l2iuPfOXZToAjTSz2PRP-363">
          <mxGeometry x="70" y="5" width="20" height="20" as="geometry" />
        </mxCell>
        <mxCell id="l2iuPfOXZToAjTSz2PRP-366" value="nome" style="text;html=1;align=center;verticalAlign=middle;whiteSpace=wrap;rounded=0;container=0;" vertex="1" parent="l2iuPfOXZToAjTSz2PRP-363">
          <mxGeometry width="65" height="30" as="geometry" />
        </mxCell>
        <mxCell id="l2iuPfOXZToAjTSz2PRP-367" value="" style="verticalLabelPosition=bottom;verticalAlign=top;html=1;shape=mxgraph.flowchart.collate;sketch=1;curveFitting=1;jiggle=2;fillColor=none;" vertex="1" parent="1">
          <mxGeometry x="-1635" y="-252.75" width="100" height="305.5" as="geometry" />
        </mxCell>
        <mxCell id="l2iuPfOXZToAjTSz2PRP-368" value="" style="rounded=0;whiteSpace=wrap;html=1;glass=0;sketch=1;curveFitting=1;jiggle=2;" vertex="1" parent="1">
          <mxGeometry x="-1635.5" y="-372.75" width="100" height="120" as="geometry" />
        </mxCell>
        <mxCell id="l2iuPfOXZToAjTSz2PRP-369" value="" style="rounded=1;whiteSpace=wrap;html=1;labelBackgroundColor=none;fontColor=default;sketch=1;curveFitting=1;jiggle=2;" vertex="1" parent="1">
          <mxGeometry x="-1455.5" y="-387.25" width="320" height="410" as="geometry" />
        </mxCell>
        <mxCell id="l2iuPfOXZToAjTSz2PRP-370" value="SALVAR" style="rounded=1;whiteSpace=wrap;html=1;fillColor=#d5e8d4;strokeColor=#82b366;sketch=1;curveFitting=1;jiggle=2;" vertex="1" parent="1">
          <mxGeometry x="-1431.52" y="-11.759999999999991" width="270" height="24.51" as="geometry" />
        </mxCell>
        <mxCell id="l2iuPfOXZToAjTSz2PRP-378" value="" style="curved=1;endArrow=classic;html=1;rounded=0;exitX=-0.001;exitY=0.412;exitDx=0;exitDy=0;exitPerimeter=0;entryX=1;entryY=0.5;entryDx=0;entryDy=0;" edge="1" parent="1" source="l2iuPfOXZToAjTSz2PRP-369" target="l2iuPfOXZToAjTSz2PRP-387">
          <mxGeometry width="50" height="50" relative="1" as="geometry">
            <mxPoint x="-1425.5" y="-272.75" as="sourcePoint" />
            <mxPoint x="-1545.5" y="-292.75" as="targetPoint" />
            <Array as="points">
              <mxPoint x="-1510" y="-197.25" />
              <mxPoint x="-1520" y="-237.25" />
              <mxPoint x="-1456" y="-297.25" />
              <mxPoint x="-1480" y="-332.25" />
            </Array>
          </mxGeometry>
        </mxCell>
        <mxCell id="l2iuPfOXZToAjTSz2PRP-379" value="Item nÃ£o foi cadastrado! Preencher o campo: XXX" style="rounded=1;whiteSpace=wrap;html=1;fillColor=#f8cecc;strokeColor=#b85450;sketch=1;curveFitting=1;jiggle=2;" vertex="1" parent="1">
          <mxGeometry x="-1457.79" y="171.75" width="320" height="20" as="geometry" />
        </mxCell>
        <mxCell id="l2iuPfOXZToAjTSz2PRP-380" value="&lt;font style=&quot;font-size: 30px;&quot;&gt;&lt;b&gt;Tela de Controle de EPI&lt;/b&gt;&lt;/font&gt;" style="text;html=1;align=center;verticalAlign=middle;whiteSpace=wrap;rounded=0;" vertex="1" parent="1">
          <mxGeometry x="-1633" y="-532.75" width="576" height="30" as="geometry" />
        </mxCell>
        <mxCell id="l2iuPfOXZToAjTSz2PRP-382" value="" style="group;fillColor=#f5f5f5;fontColor=#333333;strokeColor=#666666;fontStyle=0" connectable="0" vertex="1" parent="1">
          <mxGeometry x="-1636" y="-317.25" width="100" height="30" as="geometry" />
        </mxCell>
        <mxCell id="l2iuPfOXZToAjTSz2PRP-383" value="" style="rounded=0;whiteSpace=wrap;html=1;container=0;sketch=1;curveFitting=1;jiggle=2;fillColor=#dae8fc;strokeColor=none;" vertex="1" parent="l2iuPfOXZToAjTSz2PRP-382">
          <mxGeometry width="100" height="30" as="geometry" />
        </mxCell>
        <mxCell id="l2iuPfOXZToAjTSz2PRP-384" value="&lt;font size=&quot;1&quot;&gt;RelatÃ³rios&lt;/font&gt;" style="text;html=1;align=center;verticalAlign=middle;whiteSpace=wrap;rounded=0;container=0;" vertex="1" parent="l2iuPfOXZToAjTSz2PRP-382">
          <mxGeometry width="99.04" height="30" as="geometry" />
        </mxCell>
        <mxCell id="l2iuPfOXZToAjTSz2PRP-385" value="" style="group;fillColor=#f5f5f5;fontColor=#333333;strokeColor=#666666;fontStyle=0" connectable="0" vertex="1" parent="1">
          <mxGeometry x="-1636" y="-347.25" width="100" height="30" as="geometry" />
        </mxCell>
        <mxCell id="l2iuPfOXZToAjTSz2PRP-386" value="" style="rounded=0;whiteSpace=wrap;html=1;container=0;sketch=1;curveFitting=1;jiggle=2;fillColor=#dae8fc;strokeColor=none;" vertex="1" parent="l2iuPfOXZToAjTSz2PRP-385">
          <mxGeometry width="100" height="30" as="geometry" />
        </mxCell>
        <mxCell id="l2iuPfOXZToAjTSz2PRP-387" value="&lt;font style=&quot;font-size: 9px;&quot;&gt;Registrar aÃ§Ã£o&lt;/font&gt;" style="text;html=1;align=center;verticalAlign=middle;whiteSpace=wrap;rounded=0;container=0;" vertex="1" parent="l2iuPfOXZToAjTSz2PRP-385">
          <mxGeometry width="99.04" height="30" as="geometry" />
        </mxCell>
        <mxCell id="l2iuPfOXZToAjTSz2PRP-388" value="" style="group;fontStyle=0" connectable="0" vertex="1" parent="1">
          <mxGeometry x="-1640" y="-377.25" width="104" height="30" as="geometry" />
        </mxCell>
        <mxCell id="l2iuPfOXZToAjTSz2PRP-389" value="" style="rounded=0;whiteSpace=wrap;html=1;sketch=1;curveFitting=1;jiggle=2;container=0;" vertex="1" parent="l2iuPfOXZToAjTSz2PRP-388">
          <mxGeometry x="4" width="100" height="30" as="geometry" />
        </mxCell>
        <mxCell id="l2iuPfOXZToAjTSz2PRP-390" value="Controle EPI" style="text;html=1;align=center;verticalAlign=middle;whiteSpace=wrap;rounded=0;container=0;" vertex="1" parent="l2iuPfOXZToAjTSz2PRP-388">
          <mxGeometry width="103" height="30" as="geometry" />
        </mxCell>
        <mxCell id="l2iuPfOXZToAjTSz2PRP-391" value="" style="group;fontStyle=0" connectable="0" vertex="1" parent="1">
          <mxGeometry x="-1635" y="-282.75" width="100" height="30" as="geometry" />
        </mxCell>
        <mxCell id="l2iuPfOXZToAjTSz2PRP-392" value="" style="rounded=0;whiteSpace=wrap;html=1;sketch=1;curveFitting=1;jiggle=2;container=0;" vertex="1" parent="l2iuPfOXZToAjTSz2PRP-391">
          <mxGeometry width="100" height="30" as="geometry" />
        </mxCell>
        <mxCell id="l2iuPfOXZToAjTSz2PRP-393" value="Colaborador" style="text;html=1;align=center;verticalAlign=middle;whiteSpace=wrap;rounded=0;container=0;" vertex="1" parent="l2iuPfOXZToAjTSz2PRP-391">
          <mxGeometry width="99.04" height="30" as="geometry" />
        </mxCell>
        <mxCell id="l2iuPfOXZToAjTSz2PRP-493" value="Item cadastrado com sucesso!" style="rounded=1;whiteSpace=wrap;html=1;fillColor=#d5e8d4;strokeColor=#82b366;sketch=1;curveFitting=1;jiggle=2;" vertex="1" parent="1">
          <mxGeometry x="-1457.79" y="137.25" width="320" height="20" as="geometry" />
        </mxCell>
        <mxCell id="l2iuPfOXZToAjTSz2PRP-508" value="status" style="swimlane;fontStyle=0;childLayout=stackLayout;horizontal=1;startSize=30;horizontalStack=0;resizeParent=1;resizeParentMax=0;resizeLast=0;collapsible=1;marginBottom=0;whiteSpace=wrap;html=1;" vertex="1" parent="1">
          <mxGeometry x="-994" y="-377.25" width="144" height="210" as="geometry" />
        </mxCell>
        <mxCell id="l2iuPfOXZToAjTSz2PRP-509" value="Emprestado" style="text;strokeColor=none;fillColor=none;align=left;verticalAlign=middle;spacingLeft=4;spacingRight=4;overflow=hidden;points=[[0,0.5],[1,0.5]];portConstraint=eastwest;rotatable=0;whiteSpace=wrap;html=1;" vertex="1" parent="l2iuPfOXZToAjTSz2PRP-508">
          <mxGeometry y="30" width="144" height="30" as="geometry" />
        </mxCell>
        <mxCell id="l2iuPfOXZToAjTSz2PRP-530" value="Em Uso" style="text;strokeColor=none;fillColor=none;align=left;verticalAlign=middle;spacingLeft=4;spacingRight=4;overflow=hidden;points=[[0,0.5],[1,0.5]];portConstraint=eastwest;rotatable=0;whiteSpace=wrap;html=1;" vertex="1" parent="l2iuPfOXZToAjTSz2PRP-508">
          <mxGeometry y="60" width="144" height="30" as="geometry" />
        </mxCell>
        <mxCell id="l2iuPfOXZToAjTSz2PRP-529" value="Fornecido" style="text;strokeColor=none;fillColor=none;align=left;verticalAlign=middle;spacingLeft=4;spacingRight=4;overflow=hidden;points=[[0,0.5],[1,0.5]];portConstraint=eastwest;rotatable=0;whiteSpace=wrap;html=1;" vertex="1" parent="l2iuPfOXZToAjTSz2PRP-508">
          <mxGeometry y="90" width="144" height="30" as="geometry" />
        </mxCell>
        <mxCell id="l2iuPfOXZToAjTSz2PRP-510" value="Devolvido" style="text;strokeColor=none;fillColor=none;align=left;verticalAlign=middle;spacingLeft=4;spacingRight=4;overflow=hidden;points=[[0,0.5],[1,0.5]];portConstraint=eastwest;rotatable=0;whiteSpace=wrap;html=1;" vertex="1" parent="l2iuPfOXZToAjTSz2PRP-508">
          <mxGeometry y="120" width="144" height="30" as="geometry" />
        </mxCell>
        <mxCell id="l2iuPfOXZToAjTSz2PRP-531" value="Danificado" style="text;strokeColor=none;fillColor=none;align=left;verticalAlign=middle;spacingLeft=4;spacingRight=4;overflow=hidden;points=[[0,0.5],[1,0.5]];portConstraint=eastwest;rotatable=0;whiteSpace=wrap;html=1;" vertex="1" parent="l2iuPfOXZToAjTSz2PRP-508">
          <mxGeometry y="150" width="144" height="30" as="geometry" />
        </mxCell>
        <mxCell id="l2iuPfOXZToAjTSz2PRP-511" value="Perdido" style="text;strokeColor=none;fillColor=none;align=left;verticalAlign=middle;spacingLeft=4;spacingRight=4;overflow=hidden;points=[[0,0.5],[1,0.5]];portConstraint=eastwest;rotatable=0;whiteSpace=wrap;html=1;" vertex="1" parent="l2iuPfOXZToAjTSz2PRP-508">
          <mxGeometry y="180" width="144" height="30" as="geometry" />
        </mxCell>
        <mxCell id="l2iuPfOXZToAjTSz2PRP-512" value="" style="curved=1;endArrow=classic;html=1;rounded=0;exitX=1;exitY=0.5;exitDx=0;exitDy=0;entryX=0;entryY=0.5;entryDx=0;entryDy=0;" edge="1" parent="1" source="l2iuPfOXZToAjTSz2PRP-499" target="l2iuPfOXZToAjTSz2PRP-530">
          <mxGeometry width="50" height="50" relative="1" as="geometry">
            <mxPoint x="-1050" y="-197.25" as="sourcePoint" />
            <mxPoint x="-1000" y="-247.25" as="targetPoint" />
            <Array as="points">
              <mxPoint x="-1020" y="-167.25" />
              <mxPoint x="-1090" y="-302.25" />
            </Array>
          </mxGeometry>
        </mxCell>
        <mxCell id="l2iuPfOXZToAjTSz2PRP-376" value="Colaborador" style="text;html=1;align=left;verticalAlign=middle;whiteSpace=wrap;rounded=0;fontSize=10;" vertex="1" parent="1">
          <mxGeometry x="-1429.5232620320858" y="-334.8081395348837" width="266.9732620320856" height="28.6046511627907" as="geometry" />
        </mxCell>
        <mxCell id="l2iuPfOXZToAjTSz2PRP-377" value="" style="rounded=1;whiteSpace=wrap;html=1;fontSize=10;" vertex="1" parent="1">
          <mxGeometry x="-1429.5232620320858" y="-306.20348837209303" width="266.9732620320856" height="23.837209302325583" as="geometry" />
        </mxCell>
        <mxCell id="l2iuPfOXZToAjTSz2PRP-498" value="Status" style="text;html=1;align=left;verticalAlign=middle;whiteSpace=wrap;rounded=0;fontSize=10;" vertex="1" parent="1">
          <mxGeometry x="-1430.0032620320858" y="-229.6918604651164" width="266.9732620320856" height="28.6046511627907" as="geometry" />
        </mxCell>
        <mxCell id="l2iuPfOXZToAjTSz2PRP-499" value="" style="rounded=1;whiteSpace=wrap;html=1;fontSize=10;" vertex="1" parent="1">
          <mxGeometry x="-1430.0032620320858" y="-201.08720930232562" width="266.9732620320856" height="23.837209302325583" as="geometry" />
        </mxCell>
        <mxCell id="l2iuPfOXZToAjTSz2PRP-373" value="Equipamento" style="text;html=1;align=left;verticalAlign=middle;whiteSpace=wrap;rounded=0;fontSize=10;" vertex="1" parent="1">
          <mxGeometry x="-1430" y="-387.25" width="266.9732620320856" height="28.6046511627907" as="geometry" />
        </mxCell>
        <mxCell id="l2iuPfOXZToAjTSz2PRP-374" value="" style="rounded=1;whiteSpace=wrap;html=1;fontSize=10;" vertex="1" parent="1">
          <mxGeometry x="-1430" y="-358.6453488372093" width="266.9732620320856" height="23.837209302325583" as="geometry" />
        </mxCell>
        <mxCell id="l2iuPfOXZToAjTSz2PRP-500" value="Data do emprÃ©stimo" style="text;html=1;align=left;verticalAlign=middle;whiteSpace=wrap;rounded=0;fontSize=10;" vertex="1" parent="1">
          <mxGeometry x="-1429.5232620320858" y="-282.3662790697674" width="128.7192513368984" height="28.6046511627907" as="geometry" />
        </mxCell>
        <mxCell id="l2iuPfOXZToAjTSz2PRP-501" value="" style="rounded=1;whiteSpace=wrap;html=1;fontSize=10;" vertex="1" parent="1">
          <mxGeometry x="-1429.5232620320858" y="-253.76162790697663" width="128.7192513368984" height="23.837209302325583" as="geometry" />
        </mxCell>
        <mxCell id="l2iuPfOXZToAjTSz2PRP-502" value="Data prevista da devoluÃ§Ã£o" style="text;html=1;align=left;verticalAlign=middle;whiteSpace=wrap;rounded=0;fontSize=10;" vertex="1" parent="1">
          <mxGeometry x="-1291.7459893048126" y="-282.3662790697674" width="128.7192513368984" height="28.6046511627907" as="geometry" />
        </mxCell>
        <mxCell id="l2iuPfOXZToAjTSz2PRP-503" value="" style="rounded=1;whiteSpace=wrap;html=1;fontSize=10;" vertex="1" parent="1">
          <mxGeometry x="-1291.7459893048126" y="-253.76162790697663" width="128.7192513368984" height="23.837209302325583" as="geometry" />
        </mxCell>
        <mxCell id="l2iuPfOXZToAjTSz2PRP-505" value="" style="endArrow=none;html=1;rounded=0;strokeWidth=1;fillColor=#f5f5f5;strokeColor=#666666;sketch=1;curveFitting=1;jiggle=2;" edge="1" parent="1">
          <mxGeometry width="50" height="50" relative="1" as="geometry">
            <mxPoint x="-1190" y="-194.17000000000007" as="sourcePoint" />
            <mxPoint x="-1170" y="-194.17000000000007" as="targetPoint" />
            <Array as="points">
              <mxPoint x="-1180" y="-184.17000000000007" />
            </Array>
          </mxGeometry>
        </mxCell>
        <mxCell id="l2iuPfOXZToAjTSz2PRP-516" value="CondiÃ§Ãµes do equipamento no emprÃ©stimo" style="text;html=1;align=left;verticalAlign=middle;whiteSpace=wrap;rounded=0;fontSize=10;" vertex="1" parent="1">
          <mxGeometry x="-1431.2800000000002" y="-177.25" width="266.9732620320856" height="28.6046511627907" as="geometry" />
        </mxCell>
        <mxCell id="l2iuPfOXZToAjTSz2PRP-517" value="" style="rounded=1;whiteSpace=wrap;html=1;fontSize=10;" vertex="1" parent="1">
          <mxGeometry x="-1431.2800000000002" y="-148.64534883720944" width="266.9732620320856" height="23.837209302325583" as="geometry" />
        </mxCell>
        <mxCell id="l2iuPfOXZToAjTSz2PRP-518" value="Data da devoluÃ§Ã£o" style="text;html=1;align=left;verticalAlign=middle;whiteSpace=wrap;rounded=0;fontSize=10;" vertex="1" parent="1">
          <mxGeometry x="-1431.2800000000002" y="-124.80999999999995" width="266.9732620320856" height="28.6046511627907" as="geometry" />
        </mxCell>
        <mxCell id="l2iuPfOXZToAjTSz2PRP-519" value="" style="rounded=1;whiteSpace=wrap;html=1;fontSize=10;" vertex="1" parent="1">
          <mxGeometry x="-1431.2800000000002" y="-96.20534883720939" width="266.9732620320856" height="23.837209302325583" as="geometry" />
        </mxCell>
        <mxCell id="l2iuPfOXZToAjTSz2PRP-520" value="ObservaÃ§Ã£o na devoluÃ§Ã£o/perda" style="text;html=1;align=left;verticalAlign=middle;whiteSpace=wrap;rounded=0;fontSize=10;" vertex="1" parent="1">
          <mxGeometry x="-1431.2800000000002" y="-72.36999999999989" width="266.9732620320856" height="28.6046511627907" as="geometry" />
        </mxCell>
        <mxCell id="l2iuPfOXZToAjTSz2PRP-521" value="" style="rounded=1;whiteSpace=wrap;html=1;fontSize=10;" vertex="1" parent="1">
          <mxGeometry x="-1431.2800000000002" y="-43.76534883720933" width="266.9732620320856" height="23.837209302325583" as="geometry" />
        </mxCell>
        <mxCell id="l2iuPfOXZToAjTSz2PRP-522" value="" style="curved=1;endArrow=classic;html=1;rounded=0;exitX=1;exitY=0.5;exitDx=0;exitDy=0;entryX=0;entryY=0.25;entryDx=0;entryDy=0;" edge="1" parent="1" source="l2iuPfOXZToAjTSz2PRP-521" target="l2iuPfOXZToAjTSz2PRP-525">
          <mxGeometry width="50" height="50" relative="1" as="geometry">
            <mxPoint x="-1010" y="-67.25" as="sourcePoint" />
            <mxPoint x="-1000" y="-127.25" as="targetPoint" />
            <Array as="points">
              <mxPoint x="-970" y="-57.25" />
              <mxPoint x="-1050" y="-117.25" />
            </Array>
          </mxGeometry>
        </mxCell>
        <mxCell id="l2iuPfOXZToAjTSz2PRP-523" value="" style="curved=1;endArrow=none;html=1;rounded=0;endFill=0;exitX=1;exitY=0.5;exitDx=0;exitDy=0;" edge="1" parent="1" source="l2iuPfOXZToAjTSz2PRP-519">
          <mxGeometry width="50" height="50" relative="1" as="geometry">
            <mxPoint x="-1030" y="-111.73000000000002" as="sourcePoint" />
            <mxPoint x="-1070" y="-47.25" as="targetPoint" />
            <Array as="points">
              <mxPoint x="-1120" y="-97.25" />
              <mxPoint x="-1140" y="-37.25" />
            </Array>
          </mxGeometry>
        </mxCell>
        <mxCell id="l2iuPfOXZToAjTSz2PRP-525" value="SÃ³ deve aparecer esses dois campos quando selecionado os status &lt;b&gt;Danificado&lt;/b&gt;, &lt;b&gt;Devolvido&lt;/b&gt; ou &lt;b&gt;Perdido&lt;/b&gt;." style="text;html=1;align=left;verticalAlign=top;whiteSpace=wrap;rounded=0;strokeColor=default;" vertex="1" parent="1">
          <mxGeometry x="-994" y="-157.25" width="144" height="121.4" as="geometry" />
        </mxCell>
        <mxCell id="l2iuPfOXZToAjTSz2PRP-528" value="Ao cadastrar um item deve mostrar as mensagem abaixo em caso de sucesso/falha." style="text;html=1;align=left;verticalAlign=bottom;whiteSpace=wrap;rounded=0;" vertex="1" parent="1">
          <mxGeometry x="-1457.79" y="62.75" width="320" height="74.5" as="geometry" />
        </mxCell>
        <mxCell id="l2iuPfOXZToAjTSz2PRP-492" value="x" style="text;html=1;align=center;verticalAlign=middle;whiteSpace=wrap;rounded=0;fontColor=#4D4D4D;fontStyle=1" vertex="1" parent="1">
          <mxGeometry x="-1157.79" y="137.25" width="20" height="20" as="geometry" />
        </mxCell>
        <mxCell id="l2iuPfOXZToAjTSz2PRP-533" value="x" style="text;html=1;align=center;verticalAlign=middle;whiteSpace=wrap;rounded=0;fontColor=#4D4D4D;fontStyle=1" vertex="1" parent="1">
          <mxGeometry x="-1155.5" y="172.75" width="20" height="20" as="geometry" />
        </mxCell>
      </root>
    </mxGraphModel>
  </diagram>
</mxfile>
